<?xml version="1.0" standalone="no"?>
<!DOCTYPE svg PUBLIC "-//W3C//DTD SVG 1.1//EN" "http://www.w3.org/Graphics/SVG/1.1/DTD/svg11.dtd" >
<!--
2013-9-30: Created.
-->
<svg>
<metadata>
Created by iconfont
</metadata>
<defs>

<font id="iconfont" horiz-adv-x="1024" >
  <font-face
    font-family="iconfont"
    font-weight="500"
    font-stretch="normal"
    units-per-em="1024"
    ascent="896"
    descent="-128"
  />
    <missing-glyph />
    
    <glyph glyph-name="icon_Mental-Math" unicode="&#59040;" d="M720.592593-128H303.407407A303.407407 303.407407 0 0 0 0 175.407407V592.592593A303.407407 303.407407 0 0 0 303.407407 896h417.185186a303.407407 303.407407 0 0 0 303.407407-303.407407v-417.185186a303.407407 303.407407 0 0 0-303.407407-303.407407z m227.764148 689.777778A258.578963 258.578963 0 0 1 689.777778 820.356741H334.165333A258.578963 258.578963 0 0 1 75.58637 561.777778v-355.555556A258.578963 258.578963 0 0 1 334.165333-52.337778h355.536593a258.578963 258.578963 0 0 1 258.578963 258.56v355.555556zM424.884148 536.291556H379.259259v-45.624889a37.925926 37.925926 0 0 0-75.851852 0v45.624889h-45.624888a37.925926 37.925926 0 0 0 0 75.851851H303.407407v45.643852a37.925926 37.925926 0 0 0 75.851852 0v-45.643852h45.624889a37.925926 37.925926 0 0 0 0-75.851851zM610.834963 611.555556h166.874074a37.925926 37.925926 0 0 0 0-75.851852h-166.874074a37.925926 37.925926 0 0 0 0 75.851852zM610.967704 289.185185H777.481481a37.925926 37.925926 0 0 0 0-75.851852h-166.513777a37.925926 37.925926 0 0 0 0 75.851852z m-0.132741-132.740741h166.874074a37.925926 37.925926 0 0 0 0-75.851851h-166.874074a37.925926 37.925926 0 0 0 0 75.851851zM430.857481 210.773333l-33.431703-33.41274 33.242074-33.242074a37.925926 37.925926 0 0 0-53.494519-53.494519l-33.242074 33.242074-33.223111-33.242074a37.925926 37.925926 0 0 0-53.494518 53.494519l33.223111 33.242074-33.412741 33.41274a37.925926 37.925926 0 0 0 53.494519 53.494519l33.41274-33.412741 33.412741 33.412741a37.925926 37.925926 0 0 0 53.513481-53.494519z"  horiz-adv-x="1024" />

    
    <glyph glyph-name="icon_Telling-Time" unicode="&#59041;" d="M985.986319 630.751299a37.892672 37.892672 0 0 0-37.892672 37.892671h-0.947317c0 105.019539-46.759557 150.793887-151.210706 150.793887V820.214657a37.892672 37.892672 0 0 0 0 75.785343h37.608477a189.55809 189.55809 0 0 0 189.463358-189.577036v-30.124674A37.892672 37.892672 0 0 0 985.986319 630.751299zM966.452647 364.839476a454.200508 454.200508 0 0 0-191.774811-370.798738l59.567279-59.56728a36.376965 36.376965 0 1 0-51.439301-51.439301l-72.810769 72.791822a450.183885 450.183885 0 0 0-396.262613-0.113678l-72.678144-72.678144A36.376965 36.376965 0 0 0 189.652879-65.526542l59.415709 59.415709A454.712059 454.712059 0 1 0 966.452647 364.839476z m-454.71206 378.926716a379.097233 379.097233 0 1 1 378.926716-379.097233A378.926716 378.926716 0 0 1 511.740587 743.709353z m155.189437-561.323091l-184.158384 184.158384a37.210604 37.210604 0 0 0-8.109032 40.412534v216.746082a37.191657 37.191657 0 0 0 37.172711 37.191657h0.246302a37.172711 37.172711 0 0 0 37.172711-37.191657V405.289903l170.308613-170.289666a37.210604 37.210604 0 0 0-52.632921-52.613975zM228.132887 820.214657h-0.530498v-0.833639c-103.219637 0-150.98335-47.062698-150.98335-150.793887a37.892672 37.892672 0 0 0-75.785343 0H0.000057v37.778994A189.577036 189.577036 0 0 0 189.652879 896h38.423169a37.892672 37.892672 0 0 0 0.056839-75.785343z"  horiz-adv-x="1024" />

    
    <glyph glyph-name="icon_Activity-Generator" unicode="&#59042;" d="M728.832-128a230.4 230.4 0 1 1-433.6128 0H25.6V435.2h972.8v-563.2h-269.568zM512 716.8m-179.2 0a179.2 179.2 0 1 1 358.4 0 179.2 179.2 0 1 1-358.4 0Z"  horiz-adv-x="1024" />

    
    <glyph glyph-name="welcome-page_Get-started" unicode="&#59038;" d="M1167.292603 303.633432c-24.445918-26.360849-413.136021-413.013791-413.136021-413.013791a61.114796 61.114796 0 0 0-86.375578 86.416322l325.538146 325.33443H61.114796a61.114796 61.114796 0 0 0 0 122.229592h972.947551l-366.281343 366.077628A61.114796 61.114796 0 1 0 754.156582 877.134677s414.765748-413.339737 440.841395-440.800651c34.631718-36.424418 11.815527-90.531384-27.705374-132.700594z"  horiz-adv-x="1213" />

    
    <glyph glyph-name="icon_publisher-like" unicode="&#59036;" d="M856.832 348.864l-343.936-350.528h-0.768L168.256 348.864a289.472 289.472 0 0 0-105.6 192A229.312 229.312 0 0 0 506.24 621.888l5.888 1.536h0.832l5.888-1.536a229.312 229.312 0 0 0 443.584-81.024 289.536 289.536 0 0 0-105.6-192z"  horiz-adv-x="1024" />

    
    <glyph glyph-name="icon_publisher-collections" unicode="&#59037;" d="M512 831.168l155.264-281.6 315.84-60.672-219.84-234.88 39.872-319.104L512 71.488l-291.2-136.576 39.936 319.104L40.896 488.768l315.84 60.672L512 831.04"  horiz-adv-x="1024" />

    
    <glyph glyph-name="icon_invalid" unicode="&#59035;" d="M1086.962703-127.934595H169.550793c-90.694714 0-151.521216 51.582618-151.521217 127.517639a182.435905 182.435905 0 0 0 26.597969 90.367689L504.205565 812.347208c30.740276 53.370351 75.215568 83.630991 124.051183 83.63099s93.310907-30.086227 124.923247-84.764674l457.83389-719.954694a183.613192 183.613192 0 0 0 27.470034-91.719389c0-75.891418-60.826503-127.474036-151.521216-127.474036z m55.158083 234.214737l-416.628841 651.868254C698.893976 804.193404 669.679814 831.401818 628.474764 831.401818s-71.073261-29.846409-97.017182-74.801337L111.776516 102.726479c-14.825097-25.878516-37.062744-69.067513-37.062744-93.507122 0-63.922332 44.475292-71.552897 120.780941-71.552896h875.988844c76.305648 0 115.112521 8.720646 115.112521 72.577572 0 24.374204-28.996146 69.002108-44.475292 96.036109z m-520.186506 88.710767a35.863655 35.863655 0 0 0-30.958292 24.308799c-12.42692 24.526816-51.015776 332.256595-51.015776 361.579766a81.538036 81.538036 0 0 0 163.076071 0c0-29.017948-38.588856-337.925014-50.361728-361.536162a36.801124 36.801124 0 0 0-30.740275-24.352403z m0.654048-52.498286a71.945326 71.945326 0 1 0-71.945326-71.945326 71.770913 71.770913 0 0 0 71.945326 71.945326z"  horiz-adv-x="1364" />

    
    <glyph glyph-name="icon_settings" unicode="&#59034;" d="M141.395154 6.930244a171.870058 171.870058 0 0 1-2.578696 164.714178 131.255603 131.255603 0 0 1-121.843364 74.137497 511.548728 511.548728 0 0 0-16.116847 98.828507h0.644674a516.641652 516.641652 0 0 0 5.802065 125.969277 4.577185 4.577185 0 0 1 0.644674 2.836565c2.578696 13.667086 5.157391 27.269705 9.025434 40.807857A168.582221 168.582221 0 0 1 159.446023 761.263158q15.472173 14.698565 30.944346 28.043314a10.250315 10.250315 0 0 0 2.578696 1.869554A527.858978 527.858978 0 0 0 298.695582 859.640393V860.091665A521.154369 521.154369 0 0 0 392.173295 895.355326a132.222614 132.222614 0 0 1 125.066734-68.593301 156.462352 156.462352 0 0 1 141.828255 65.112062 521.089902 521.089902 0 0 0 233.371947-134.672375 165.100982 165.100982 0 0 1 4.512717-161.168471 132.80282 132.80282 0 0 1 122.488038-74.073029 568.344498 568.344498 0 0 0 16.116847-98.828507h-0.644674a517.737598 517.737598 0 0 0-6.446738-126.033745v-3.029967c-2.578696-13.602619-5.802065-27.269705-9.025435-40.807857a168.002015 168.002015 0 0 1-142.472929-247.039033q-15.472173-14.698565-30.944346-28.043314a8.832032 8.832032 0 0 1-2.578696-1.805087 544.10476 544.10476 0 0 0-105.726517-68.528834v-0.451272a540.301184 540.301184 0 0 0-93.477713-35.263661 142.150592 142.150592 0 0 1-125.066734 80.004029 172.901536 172.901536 0 0 1-144.406951-80.132964 532.951901 532.951901 0 0 0-125.066733 52.08965 545.07177 545.07177 0 0 0-108.305213 82.840594z m217.899773 12.377739a246.13649 246.13649 0 0 0 159.23445 58.02065 202.492067 202.492067 0 0 0 141.828255-59.5034 387.771342 387.771342 0 0 1 81.873583 46.932259 248.392848 248.392848 0 0 0 29.010325 167.292873 245.814153 245.814153 0 0 0 130.224125 108.692017 386.804331 386.804331 0 0 1 0 94.573659 194.369177 194.369177 0 0 0-112.81793 98.50617 244.524805 244.524805 0 0 0-29.010325 167.163939 415.685721 415.685721 0 0 1-39.969781 26.367162 383.580962 383.580962 0 0 1-42.548476 21.080836 237.884664 237.884664 0 0 0-159.23445-46.609922 193.402166 193.402166 0 0 0-141.828255 48.092672 390.607907 390.607907 0 0 1-81.873583-46.932259 248.392848 248.392848 0 0 0-29.010325-167.292874 244.976077 244.976077 0 0 0-130.868799-108.692017 421.681189 421.681189 0 0 1 0.644674-94.573659 194.240242 194.240242 0 0 0 112.81793-98.570637 244.331403 244.331403 0 0 0 29.010325-167.099471 403.888189 403.888189 0 0 1 39.969781-26.367162 343.933518 343.933518 0 0 1 42.548476-21.080836z m158.589776 556.418031a193.402166 193.402166 0 1 0-193.402166-193.402166 193.402166 193.402166 0 0 0 193.402166 193.402166z m0-127.580962A65.821204 65.821204 0 1 0 451.483293 382.323848a66.079073 66.079073 0 0 0 66.40141 65.821204z"  horiz-adv-x="1036" />

    
    <glyph glyph-name="icon_Officialaccount" unicode="&#59032;" d="M512 384m-512 0a512 512 0 1 1 1024 0 512 512 0 1 1-1024 0ZM653.696 603.136l-139.050667-339.925333-139.050666 339.925333H219.776l209.749333-512.384h166.101334l209.792 512.384h-151.722667z"  horiz-adv-x="1024" />

    
    <glyph glyph-name="icon_breadcrumbs_arrow_down" unicode="&#59031;" d="M461.312 149.7088L122.6752 515.1744a77.9264 77.9264 0 0 0 0 104.3456 64.6144 64.6144 0 0 0 74.24 16.0768 53.9648 53.9648 0 0 0 22.8352 5.12H804.864a52.736 52.736 0 0 0 22.2208-5.0176 64.7168 64.7168 0 0 0 74.1376-16.1792 77.9264 77.9264 0 0 0 0-104.3456L562.5856 149.7088a71.68 71.68 0 0 0-101.2736 0z"  horiz-adv-x="1024" />

    
    <glyph glyph-name="icon_breadcrumbs_arrow_up" unicode="&#59033;" d="M461.312 619.9296L122.6752 254.464a77.9264 77.9264 0 0 1 0-104.3456 64.6144 64.6144 0 0 1 74.24-16.0768 53.9648 53.9648 0 0 1 22.8352-5.12H804.864a52.736 52.736 0 0 1 22.2208 5.0176 64.7168 64.7168 0 0 1 74.1376 16.1792 77.9264 77.9264 0 0 1 0 104.3456L562.5856 619.9296a71.68 71.68 0 0 1-101.2736 0z"  horiz-adv-x="1024" />

    
    <glyph glyph-name="icon_chapter" unicode="&#59030;" d="M128-96V864h768v-960H128zM799.36 768H640v-352L481.92 546.688 320 416V768H223.36v-766.016h576V768z"  horiz-adv-x="1024" />

    
    <glyph glyph-name="icon_search_gray" unicode="&#59029;" d="M1008.434665-114.868565a40.088244 40.088244 0 0 0-56.582608 0l-249.55065 249.550651a429.333878 429.333878 0 1 0 56.902886 56.315708l249.230372-249.230372a40.034864 40.034864 0 0 0 0-56.635987zM432.252906 813.246335A347.395857 347.395857 0 1 1 779.221725 465.850478a347.235718 347.235718 0 0 1-346.968819 347.395857z"  horiz-adv-x="1024" />

    
    <glyph glyph-name="icon_EXCEL" unicode="&#59023;" d="M911.36 597.85216v-646.73792a58.32704 58.32704 0 0 0-58.368-58.42944H171.008a58.4704 58.4704 0 0 0-58.368 58.42944V816.92672a58.44992 58.44992 0 0 0 58.368 58.42944h462.848s9.6256-129.024 81.92-201.27744c66.3552-66.23232 195.584-76.22656 195.584-76.22656zM911.36 589.74208H686.6944a60.8256 60.8256 0 0 0-60.8256 60.80512V875.35616zM544.3584 382.07488l88.8832 168.28416h-72.704l-54.6816-108.6464-52.8384 108.6464h-75.9808l88.4736-172.032-90.3168-174.57152h72.704l55.9104 114.54464 54.6816-114.54464h76.1856z"  horiz-adv-x="1024" />

    
    <glyph glyph-name="icon_export" unicode="&#59024;" d="M857.856 499.3536a38.144 38.144 0 0 0-38.4 38.4l-1.024 183.4496-328.192-301.2096a40.96 40.96 0 0 0-55.808 0 36.1472 36.1472 0 0 0 0 52.9408l323.072 296.3968-168.448-1.2288a38.4 38.4 0 1 0 0 76.8h267.776a38.1952 38.1952 0 0 0 39.424-37.4272v-269.6704a38.5024 38.5024 0 0 0-38.4-38.4512z m-372.224 268.5952h-180.224a102.4 102.4 0 0 1-102.4-102.4v-564.7872a102.4 102.4 0 0 1 102.4-102.4h411.648a102.4 102.4 0 0 1 102.4 102.4v232.8064h75.776v-308.7872a102.4 102.4 0 0 0-102.4-102.4h-563.2a102.4 102.4 0 0 0-102.4 102.4v716.8a102.4 102.4 0 0 0 102.4 102.4h256v-76.032z m-141.824-512.768h336.384a37.632 37.632 0 0 0 0-75.2128h-336.384a37.632 37.632 0 0 0 0 75.2128z"  horiz-adv-x="1024" />

    
    <glyph glyph-name="icon_refresh" unicode="&#59025;" d="M649.6 649.6a314.176 314.176 0 0 1-117.12 22.72 321.024 321.024 0 1 1 290.56-455.872l116.48-49.984a450.56 450.56 0 1 0-195.2 577.472l120.32 120.32 55.68-374.528-374.4 55.808z"  horiz-adv-x="1024" />

    
    <glyph glyph-name="icon_download" unicode="&#59026;" d="M821.12 564.992a64.512 64.512 0 0 1-90.88 0L576 410.496V768a64 64 0 0 1-128 0v-357.44L293.76 565.056a64.512 64.512 0 0 1-90.88 0 64 64 0 0 1 0-90.496l240-239.936a62.208 62.208 0 0 1 16-31.616 90.56 90.56 0 0 1 106.24 0 64.896 64.896 0 0 1 16.64 32l239.36 239.424a64 64 0 0 1 0 90.496zM896-64H128a64 64 0 0 0-64 64V320a64 64 0 0 0 64 64 64 64 0 0 0 64-64v-256h640V320a64 64 0 0 0 128 0v-320a64 64 0 0 0-64-64z"  horiz-adv-x="1024" />

    
    <glyph glyph-name="icon_warning1" unicode="&#59027;" d="M512 384m-511.232 0a511.232 511.232 0 1 1 1022.464 0 511.232 511.232 0 1 1-1022.464 0ZM512.0512 192a85.9648 85.9648 0 1 0-71.9872-84.7872 79.2064 79.2064 0 0 0 71.9872 84.7872z m-2.048 506.2144c38.656 0 69.9904-43.2128 69.9904-163.84a807.0144 807.0144 0 0 0-69.9904-273.3056A807.4752 807.4752 0 0 0 440.064 534.3744c0 120.576 31.3344 163.84 69.9392 163.84z"  horiz-adv-x="1024" />

    
    <glyph glyph-name="icon_Draganddrop" unicode="&#59028;" d="M665.6 585.6256a103.9872 103.9872 0 1 0 103.9872 103.9872A103.9872 103.9872 0 0 0 665.6 585.6256z m-307.2 0a103.9872 103.9872 0 1 0 103.9872 103.9872A103.9872 103.9872 0 0 0 358.4 585.6256z m0-96.9728a103.0144 103.0144 0 1 0-102.9632-103.0144A103.0144 103.0144 0 0 0 358.4 488.6528z m0-308.3264a102.9632 102.9632 0 1 0-102.9632-102.9632A102.9632 102.9632 0 0 0 358.4 180.3264z m307.2 308.3264a103.0144 103.0144 0 1 0-102.9632-103.0144A103.0144 103.0144 0 0 0 665.6 488.6528z m0-308.3264a102.9632 102.9632 0 1 0-102.9632-102.9632A102.9632 102.9632 0 0 0 665.6 180.3264z"  horiz-adv-x="1024" />

    
    <glyph glyph-name="icon_live-challenge" unicode="&#59022;" d="M935.424 61.7472a41.728 41.728 0 1 0-83.4048 0v0.768h-0.512c0 0.9728 0.3072 1.8944 0.3072 2.8672a251.4944 251.4944 0 0 1-70.656 174.9504l0.4096 0.4096a39.9872 39.9872 0 1 0 56.32 56.32 331.52 331.52 0 0 0 97.28-234.8544s0.256-0.1536 0.256-0.4608z m-331.9296 255.1296h-0.6144a250.2144 250.2144 0 0 1-249.088-251.392c0-0.9728 0.3072-1.8944 0.3072-2.8672a3.3792 3.3792 0 0 0 0-0.768 41.728 41.728 0 1 0-83.4048 0v0.768h-0.4608a332.1344 332.1344 0 0 0 197.376 303.3088 214.1184 214.1184 0 1 0 135.8848-49.0496z m-0.6144 352.3584a136.96 136.96 0 1 1 137.1136-137.0624 136.9088 136.9088 0 0 1-137.1136 137.0624z m-254.3104-37.888a106.1376 106.1376 0 0 1-21.1968-197.376 53.9648 53.9648 0 0 0 29.7472-44.9024 52.9408 52.9408 0 0 0-31.5904-59.3408 220.16 220.16 0 0 1-162.7136-206.2848 21.8112 21.8112 0 0 0 0.512-2.5088 37.0176 37.0176 0 1 0-73.984 0 7.4752 7.4752 0 0 0 0 1.024h-0.3072a283.4944 283.4944 0 0 0 177.2544 265.728 177.3056 177.3056 0 0 0 35.84 304.0768 38.3488 38.3488 0 0 0 46.4384-60.416z"  horiz-adv-x="1024" />

    
    <glyph glyph-name="icon_comment" unicode="&#59020;" d="M852.48 139.776h-166.4L512-64l-173.888 203.712h-166.4a108.416 108.416 0 0 0-107.52 109.312v473.6A108.416 108.416 0 0 0 171.52 832h680.96A108.416 108.416 0 0 0 960 722.688v-473.6a108.416 108.416 0 0 0-107.52-109.312z m35.84 582.912a36.16 36.16 0 0 1-35.84 36.48H171.52a36.16 36.16 0 0 1-35.84-36.48v-473.6a36.16 36.16 0 0 1 35.84-36.416h197.696L512 45.376l142.784 167.296h197.696a36.16 36.16 0 0 1 35.84 36.416v473.6z m-179.2-182.144H314.88a36.48 36.48 0 0 0 0 72.896h394.24a36.48 36.48 0 0 0 0-72.896zM314.88 431.232h215.04a36.416 36.416 0 0 0 0-72.832H314.88a36.416 36.416 0 0 0 0 72.832z"  horiz-adv-x="1024" />

    
    <glyph glyph-name="icon_comment-notification" unicode="&#59021;" d="M512 384m-512 0a512 512 0 1 1 1024 0 512 512 0 1 1-1024 0ZM725.333333 213.333333h-99.2l-103.466666-119.296L419.2 213.333333H320a64 64 0 0 0-64 64V554.666667a64 64 0 0 0 64 64h405.333333a64 64 0 0 0 64-64v-277.333334a64 64 0 0 0-64-64z m21.333334 341.333334a21.333333 21.333333 0 0 1-21.333334 21.333333H320a21.333333 21.333333 0 0 1-21.333333-21.333333v-277.333334a21.333333 21.333333 0 0 1 21.333333-21.333333h117.76l84.906667-97.962667L607.573333 256H725.333333a21.333333 21.333333 0 0 1 21.333334 21.333333V554.666667z m-106.666667-106.666667H405.333333a21.333333 21.333333 0 0 0 0 42.666667h234.666667a21.333333 21.333333 0 0 0 0-42.666667z m-234.666667-64h128a21.333333 21.333333 0 0 0 0-42.666667h-128a21.333333 21.333333 0 0 0 0 42.666667z"  horiz-adv-x="1024" />

    
    <glyph glyph-name="icon_preview" unicode="&#59019;" d="M512-76.8a460.8 460.8 0 1 0 460.8 460.8 460.8 460.8 0 0 0-460.8-460.8z m0 870.4a409.6 409.6 0 1 1 409.6-409.6 409.6 409.6 0 0 1-409.6 409.6z m180.224-446.2592l-268.8-163.84a49.92 49.92 0 0 0-20.48-4.352 50.5344 50.5344 0 0 0-23.552 6.144 40.96 40.96 0 0 0-20.992 34.816v327.68a40.96 40.96 0 0 0 20.992 34.8672 49.6128 49.6128 0 0 0 44.032 1.792l268.8-163.84a39.6288 39.6288 0 0 0 0-73.2672z"  horiz-adv-x="1024" />

    
    <glyph glyph-name="icon_information" unicode="&#59018;" d="M512 384m-460.8 0a460.8 460.8 0 1 1 921.6 0 460.8 460.8 0 1 1-921.6 0ZM482.2016 274.3296c1.2288 88.576 106.2912 146.3808 104.5504 144.9472a249.2928 249.2928 0 0 1 62.1568 68.2496 143.9232 143.9232 0 0 1 16.896 69.6832 119.296 119.296 0 0 1-43.1616 98.7648 182.9376 182.9376 0 0 1-117.76 34.6624 249.8048 249.8048 0 0 1-131.1744-34.6624 60.2624 60.2624 0 0 1-9.3696-66.1504 85.4528 85.4528 0 0 1 39.2704-39.4752c36.5568 32.8192 46.08 47.4112 88.8832 47.4112a63.5392 63.5392 0 0 0 44.4928-15.7696 52.224 52.224 0 0 0 17.2544-40.3968 44.2368 44.2368 0 0 0-12.0832-41.9328c-17.152-20.9408-99.2768-61.44-99.2768-107.008a202.1888 202.1888 0 0 1 39.3216-118.3232z m0.512-39.4752a79.0528 79.0528 0 1 0-78.1312-79.0528 78.592 78.592 0 0 0 78.1312 79.0528z"  horiz-adv-x="1024" />

    
    <glyph glyph-name="icon_more1" unicode="&#58980;" d="M563.2-128v460.8h460.8v-460.8h-460.8z m358.4 358.4h-256v-256h256v256z m-128 204.8A230.4 230.4 0 1 0 1024 665.6 230.4 230.4 0 0 0 793.6 435.2zM0 332.8h460.8v-460.8H0v460.8z m102.4-358.4h256v256H102.4v-256zM0 896h460.8v-460.8H0V896z m102.4-358.4h256V793.6H102.4v-256z"  horiz-adv-x="1024" />

    
    <glyph glyph-name="icon_twitter" unicode="&#58979;" d="M512 896A512 512 0 1 0 0 384 512 512 0 0 0 512 896z m368.347429-492.163657a179.434057 179.434057 0 0 0-83.382858 8.440686c41.398857 3.423086 69.339429 22.176914 80.164572 47.645257a131.861943 131.861943 0 0 0-86.747429-9.640229c-1.316571 5.997714-2.633143 11.702857-4.096 16.852114-19.456 71.416686-86.162286 128.965486-156.086857 122.016915 5.558857 2.267429 11.264 4.388571 17.115429 6.319543 7.606857 2.750171 52.809143 10.093714 45.641143 25.980342-5.997714 13.999543-61.147429-10.532571-71.533715-13.765485 13.750857 5.134629 36.425143 13.970286 38.765715 29.710628a109.714286 109.714286 0 0 1-57.490286-27.194514 40.462629 40.462629 0 0 1 11.117714 21.8112c-56.173714-35.752229-88.795429-107.754057-115.273143-177.649371a279.186286 279.186286 0 0 1-55.881143 44.807314 1457.005714 1457.005714 0 0 1-189.001142 82.987886c-2.633143-28.759771 14.336-67.013486 63.049142-92.423315a156.2624 156.2624 0 0 1-45.348571-5.412571c6.290286-32.9728 26.916571-60.1088 82.505143-73.230629a67.423086 67.423086 0 0 1-50.468572-19.880228 85.577143 85.577143 0 0 1 90.697143-44.3392c-56.612571-24.327314-23.113143-69.354057 22.966857-62.639543a195.6864 195.6864 0 0 0-273.261714-7.314286c185.490286-252.196571 588.653714-149.211429 648.630857 93.769143a111.835429 111.835429 0 0 1 87.917715 33.148343z"  horiz-adv-x="1024" />

    
    <glyph glyph-name="ic_magnifier" unicode="&#59014;" d="M885.76 16.8448a38.3488 38.3488 0 0 0-54.272 0l-115.712 115.8144a362.752 362.752 0 1 0 52.736 55.552l117.248-117.0944a38.6048 38.6048 0 0 0 0-54.272zM484.864 686.4384a281.6 281.6 0 1 1 281.6-281.6 281.6 281.6 0 0 1-281.6 281.6z m115.2-307.2H510.464v-102.4a25.6 25.6 0 0 0-25.6-25.6h-25.6a25.6 25.6 0 0 0-25.6 25.6v102.4H318.464a38.4 38.4 0 0 0 0 76.8h115.2v128a25.6 25.6 0 0 0 25.6 25.6h25.6a25.6 25.6 0 0 0 25.6-25.6v-128h89.6a38.4 38.4 0 0 0 0-76.8z"  horiz-adv-x="1024" />

    
    <glyph glyph-name="icon_full-scree" unicode="&#59006;" d="M896.878161-127.179528H615.866593v152.505183h192.810857a64.304472 64.304472 0 0 1 64.612149 64.253192v192.708298l152.300065-1.589664v-279.370624a128.506385 128.506385 0 0 0-128.711503-128.506385z m-23.588562 805.600681a64.304472 64.304472 0 0 1-64.612149 64.253192H615.866593V895.179528h281.011568a128.198708 128.198708 0 0 0 128.711503-128.198708v-279.421904l-152.300065-1.589664V678.67755z m-873.289599-676.889178V280.646202l152.300065 1.589664v-192.708298a64.612149 64.612149 0 0 1 64.612149-64.253193h192.810857v-152.505183H128.711503a128.506385 128.506385 0 0 0-128.711503 128.557665z m152.300065 676.889178V485.764134l-152.300065 1.589664V766.775702A128.198708 128.198708 0 0 0 128.711503 894.97441h281.011568v-152.505183H216.912214a64.612149 64.612149 0 0 1-64.612149-64.048074z"  horiz-adv-x="1026" />

    
    <glyph glyph-name="icon_play" unicode="&#59007;" d="M176.040625-127.717823a119.699284 119.699284 0 0 0-58.890242 15.322185 100.906327 100.906327 0 0 0-53.077405 87.107895V793.588544A100.906327 100.906327 0 0 0 117.150383 880.696438 121.335907 121.335907 0 0 0 226.126958 885.183045l671.777663-409.466361a98.761785 98.761785 0 0 0 0-183.132568L226.126958-116.854027a120.658684 120.658684 0 0 0-50.086333-10.863796z"  horiz-adv-x="1024" />

    
    <glyph glyph-name="icon_Off" unicode="&#59008;" d="M942.602752 380.7744l72.704-72.3968a51.3024 51.3024 0 0 0-72.704-72.448L870.410752 308.3776l-72.192-72.448a51.3024 51.3024 0 0 0-72.704 72.448l72.704 72.3968-72.704 72.3968a51.3024 51.3024 0 0 0 72.704 72.3968L870.410752 453.1712l72.192 72.3968a51.3024 51.3024 0 0 0 72.704-72.3968zM507.914752-99.84a53.1456 53.1456 0 0 0-30.208 9.3696l-283.648 196.352h-29.184a167.1168 167.1168 0 0 0-164.864 168.96V491.1104a167.1168 167.1168 0 0 0 164.864 168.96h29.184L477.706752 857.4464a53.5552 53.5552 0 0 0 56.32 2.7648 56.32 56.32 0 0 0 28.672-49.7152v-854.4256a56.32 56.32 0 0 0-28.672-49.7152 54.784 54.784 0 0 0-26.112-6.1952z"  horiz-adv-x="1030" />

    
    <glyph glyph-name="icon_On" unicode="&#59009;" d="M904.709376 122.112a50.5856 50.5856 0 0 0-70.656 0 48.64 48.64 0 0 0 0 69.4784 243.968 243.968 0 0 1 88.576 182.6304 247.0912 247.0912 0 0 1-84.48 157.7984 48.384 48.384 0 0 0-7.168 69.0176 49.92 49.92 0 0 0 69.632 7.3728 344.0128 344.0128 0 0 0 121.344-228.1472 338.2784 338.2784 0 0 0-117.248-258.1504zM509.445376-99.84a53.1456 53.1456 0 0 0-30.208 9.3696l-283.648 196.352h-29.184a167.1168 167.1168 0 0 0-164.864 168.96V491.1104a167.1168 167.1168 0 0 0 164.864 168.96h29.184L479.237376 857.4464a53.5552 53.5552 0 0 0 56.32 2.7648 56.32 56.32 0 0 0 28.672-49.7152v-854.4256a56.32 56.32 0 0 0-28.672-49.7152 54.784 54.784 0 0 0-26.112-6.1952z"  horiz-adv-x="1024" />

    
    <glyph glyph-name="icon_windowed" unicode="&#59010;" d="M830.976 128.512a64.512 64.512 0 0 1-64.512-64.1536V-128L614.4-126.4128V152.576a128 128 0 0 0 128.512 128h280.576v-152.2688h-192.512zM614.4 615.4752V894.464l152.064 1.5872v-192.4096a64.512 64.512 0 0 1 64.512-64.1536h192.512v-152.2688h-280.576A128.256 128.256 0 0 0 614.4 615.4752zM257.536 64.3584a64.512 64.512 0 0 1-64.512 64.1536H0.512v152.2688h280.576a128 128 0 0 0 128.512-128v-278.9888l-152.064-1.5872v192.4096z m23.552 422.8608H0.512V639.488h192.512a64.512 64.512 0 0 1 64.512 64.1536V896L409.6 894.4128V615.424a128.256 128.256 0 0 0-128.512-128.2048z"  horiz-adv-x="1024" />

    
    <glyph glyph-name="icon_stop" unicode="&#59011;" d="M640-24.576a76.8 76.8 0 0 0-76.8 76.8v665.6a76.8 76.8 0 0 0 153.2928 0v-665.6a76.8 76.8 0 0 0-76.4928-76.8z m-256.3072-0.7168a76.8 76.8 0 0 0-76.8 76.8v665.6a76.8 76.8 0 0 0 153.2928 0v-665.6a76.8 76.8 0 0 0-76.1856-76.8z"  horiz-adv-x="1024" />

    
    <glyph glyph-name="icon_replay" unicode="&#59012;" d="M516.661254-127.801208a510.612288 510.612288 0 0 0-399.913361 192.516168l-116.435505-73.979144 27.291346 427.602292 395.965914-158.636275-130.492962-82.924799a303.868269 303.868269 0 1 1-53.276344 337.26538L52.907157 600.176288a511.691446 511.691446 0 1 0 463.754097-727.977496z"  horiz-adv-x="1029" />

    
    <glyph glyph-name="icon_video" unicode="&#59013;" d="M797.952 39.7824a386.1504 386.1504 0 0 1 135.6288-64.6144 763.4432 763.4432 0 0 0-29.1328-70.656 460.1856 460.1856 0 0 0-173.4656 90.7776 465.92 465.92 0 1 0 66.9696 44.4928zM512.6656 789.6576a387.2256 387.2256 0 1 1 387.3792-387.2256 387.2256 387.2256 0 0 1-387.2256 387.2256z m247.0912-413.8496a103.2192 103.2192 0 1 0 66.2528 129.9968 103.168 103.168 0 0 0-66.0992-129.9968zM510.2592 528.8448a103.2192 103.2192 0 1 0 103.3728 103.168 103.168 103.168 0 0 0-103.2192-103.168zM260.7616 375.808a103.2192 103.2192 0 1 0 130.048 66.2528 103.2192 103.2192 0 0 0-129.8944-66.2528z m175.6672-74.1888a103.168 103.168 0 1 0-144.128-22.8352 103.1168 103.1168 0 0 0 144.2816 22.8352z m23.6032 99.9936a52.0192 52.0192 0 1 0 52.0192-51.968 52.0192 52.0192 0 0 0-52.0192 51.968z m124.2112-99.9936a103.2192 103.2192 0 1 0-22.8352-144.128 103.2192 103.2192 0 0 0 22.8352 144.128z"  horiz-adv-x="1024" />

    
    <glyph glyph-name="icon_save-copy" unicode="&#59015;" d="M103.168-76.74879999999996V845.4656h672.256v-37.7344h35.84v-36.1984h36.352v-36.1472h35.84v-36.1472h37.888v-775.9872H103.168z m537.088 845.1072h-305.152v-228.3008h305.152V768.3584z m205.824-105.2672h-34.816v36.1472h-35.84v36.1472h-36.352v32.9728h-22.016v-304.4352h-459.264V768.3584h-77.312v-768h665.6V663.0912z m-77.824-430.5408h-510.464v74.5472h510.464v-74.5472z m0-153.2928h-510.464v74.5472h510.464v-74.5472z"  horiz-adv-x="1024" />

    
    <glyph glyph-name="icon_like-normal-copy" unicode="&#59017;" d="M866.048 351.9488l-354.304-368.1792v-0.4608l-0.512 0.3584-353.792 368.1792s-108.544 87.04-108.544 197.6832a235.8272 235.8272 0 0 0 456.192 83.3536l6.144 1.5872h0.512l6.144-1.5872a236.1344 236.1344 0 0 0 456.704-83.3536c0-110.3872-108.544-197.5808-108.544-197.5808z m-130.048 361.984c-95.232 0-190.464-146.2784-218.624-220.16l-5.632 1.4848-6.144-1.4848c-28.16 73.7792-121.344 220.16-214.016 220.16a164.5568 164.5568 0 0 1-166.912-168.96 218.2656 218.2656 0 0 1 91.136-148.8896h-0.512l295.936-307.712v0.5632l0.512-0.4096 295.936 307.712a219.2384 219.2384 0 0 1 90.624 148.8896c0 108.0832-44.544 168.96-162.304 168.96z"  horiz-adv-x="1024" />

    
    <glyph glyph-name="icon_like-normal-copy1" unicode="&#59016;" d="M866.048 351.9488l-354.304-368.1792v-0.4608l-0.512 0.3584-353.792 368.1792s-108.544 87.04-108.544 197.6832a235.8272 235.8272 0 0 0 456.192 83.3536l6.144 1.5872h0.512l6.144-1.5872a236.1344 236.1344 0 0 0 456.704-83.3536c0-110.3872-108.544-197.5808-108.544-197.5808z m-130.048 361.984c-95.232 0-190.464-146.2784-218.624-220.16l-5.632 1.4848-6.144-1.4848c-28.16 73.7792-121.344 220.16-214.016 220.16a164.5568 164.5568 0 0 1-166.912-168.96 218.2656 218.2656 0 0 1 91.136-148.8896h-0.512l295.936-307.712v0.5632l0.512-0.4096 295.936 307.712a219.2384 219.2384 0 0 1 90.624 148.8896c0 108.0832-44.544 168.96-162.304 168.96z"  horiz-adv-x="1024" />

    
    <glyph glyph-name="icon_Remove" unicode="&#58998;" d="M940.032 661.4016l-215.552-244.9408 74.24-74.0864a35.84 35.84 0 0 0 6.144-41.6768l-69.632-132.352a36.8128 36.8128 0 0 0-26.112-18.5344 34.7648 34.7648 0 0 0-5.632-0.4096 35.84 35.84 0 0 0-25.088 10.24l-15.36 15.36-187.392-243.3024a18.432 18.432 0 0 0-13.312-7.1168 3.9424 3.9424 0 0 0-1.024 0 18.944 18.944 0 0 0-12.8 5.12l-47.104 47.5648a17.0496 17.0496 0 0 0-3.584 20.48l7.168 14.4896-11.776-7.3728a17.7664 17.7664 0 0 0-22.016 2.4064l-43.008 42.9568a18.0224 18.0224 0 0 0-2.56 21.6576l35.328 59.6992-58.88-35.84a18.0736 18.0736 0 0 0-22.016 2.6624l-103.936 104.1408a17.2032 17.2032 0 0 0-4.096 18.7904l14.336 38.2464-34.304-16.2816a18.432 18.432 0 0 0-20.48 3.4816l-74.24 74.7008a17.5616 17.5616 0 0 0-5.12 13.8752 15.36 15.36 0 0 0 7.168 12.9536L302.592 536.064l-15.36 15.36a35.3792 35.3792 0 0 0 8.192 56.32l132.608 69.8368a34.9696 34.9696 0 0 0 41.472-6.2976l74.24-74.0864 244.736 215.7568a107.52 107.52 0 0 0 151.04-0.768 107.52 107.52 0 0 0 31.232-75.8784 106.0352 106.0352 0 0 0-30.72-74.9056zM181.76 296.1408l52.224 24.6784a14.848 14.848 0 0 0 16.384-2.5088 15.36 15.36 0 0 0 3.584-16.0256l-20.992-56.9856 92.16-94.0544 89.6 54.3744a14.5408 14.5408 0 0 0 17.92-2.0992 14.8992 14.8992 0 0 0 2.56-18.0224l-53.76-90.5728 17.408-19.2 40.96 23.296a14.592 14.592 0 0 0 20.992-18.944l-20.992-45.1072 11.776-11.9296 153.6 199.3216-255.488 255.6416-199.168-153.6z m256 306.688l-66.56-35.1744 323.584-323.584 35.328 66.56z m451.584 159.3856a36.9664 36.9664 0 0 1-51.2 0l-1.536-1.3824-242.688-213.7088 80.384-80.2816 213.504 242.5856 1.536 1.4848a35.84 35.84 0 0 1 0 51.3024z"  horiz-adv-x="1024" />

    
    <glyph glyph-name="icon_All-my-quizzes" unicode="&#58999;" d="M730.989187-127.948738a229.497797 229.497797 0 1 0 230.164197 229.497797 229.805366 229.805366 0 0 0-230.164197-229.497797z m0.512615 382.052062a152.964357 152.964357 0 1 1 153.784542-152.964357 153.271926 153.271926 0 0 1-153.784542 152.964357z m72.79135-204.430917l-86.119343-1.127753H717.661193a38.189828 38.189828 0 0 0-27.168602 11.328794 37.369644 37.369644 0 0 0-11.277533 27.219864v0.461354l-0.512615 87.964757a38.446135 38.446135 0 1 0 76.892271 0v-49.826191l48.698438 0.973969a38.446135 38.446135 0 0 0 0-76.789748zM807.368843 767.538646h-666.39968v-796.193832h306.543853l1.02523-99.139768H191.718062a128.153785 128.153785 0 0 0-128.153785 127.846216V767.846215a128.153785 128.153785 0 0 0 128.153785 128.153785h564.389267a128.153785 128.153785 0 0 0 128.153784-128.153785v-385.38406h-76.89227V767.538646zM255.794954 591.711654a47.929515 47.929515 0 0 0 47.673208 47.929515h352.1666a47.980777 47.980777 0 0 0 0-95.910292H303.468162a47.929515 47.929515 0 0 0-47.673208 48.237085z m220.424509-303.826992H303.468162a47.980777 47.980777 0 0 0 0 95.961553h172.751301a47.980777 47.980777 0 1 0 0-95.705246z"  horiz-adv-x="1025" />

    
    <glyph glyph-name="icon_save" unicode="&#59000;" d="M103.168-76.7488V845.4656h672.256v-37.7344h35.84v-36.1984h36.352v-36.1472h35.84v-36.1472h37.888v-775.9872H103.168z m537.088 845.1072h-305.152v-228.3008h305.152V768.3584z m205.824-105.2672h-34.816v36.1472h-35.84v36.1472h-36.352v32.9728h-22.016v-304.4352h-459.264V768.3584h-77.312v-768h665.6V663.0912z m-77.824-430.5408h-510.464v74.5472h510.464v-74.5472z m0-153.2928h-510.464v74.5472h510.464v-74.5472z"  horiz-adv-x="1024" />

    
    <glyph glyph-name="icon_like-click" unicode="&#59001;" d="M866.048 351.9488l-354.304-368.1792v-0.4608l-0.512 0.3584-353.792 368.1792s-108.544 87.04-108.544 197.6832a235.8272 235.8272 0 0 0 456.192 83.3536l6.144 1.5872h0.512l6.144-1.5872a236.1344 236.1344 0 0 0 456.704-83.3536c0-110.3872-108.544-197.5808-108.544-197.5808z"  horiz-adv-x="1024" />

    
    <glyph glyph-name="icon_folder" unicode="&#59002;" d="M50.688 26.2656V641.024h96.1536l52.0704 101.4272h362.4448L614.4 641.024h358.4v-614.7584H50.688z m845.312 542.72h-361.1136l-50.3296 96.6656H275.712l-49.6128-96.6656H127.488v-464.3328H896V568.9856z m-499.5584-206.1824l72.6016-70.2976 161.6384 163.072a38.4 38.4 0 0 0 54.3232-54.272l-187.904-189.44s0-0.3072-0.3072-0.4608a38.6048 38.6048 0 0 0-54.4256 0 2.816 2.816 0 0 1-0.3072 0.4096l-99.8912 96.768a38.4 38.4 0 0 0 54.272 54.2208z"  horiz-adv-x="1024" />

    
    <glyph glyph-name="icon_collections" unicode="&#59003;" d="M494.848 48.9984l-351.744-159.7952 43.008 384zM509.696 879.872L341.76 574.8224 4.352 512.3072l817.664-599.9104-39.936 342.4768 238.08 254.208-342.016 65.7408L509.696 879.872"  horiz-adv-x="1024" />

    
    <glyph glyph-name="icon_more" unicode="&#59004;" d="M510.976106 129.666516a128.805869 128.805869 0 1 0-128.4987-128.754674 128.959453 128.959453 0 0 0 128.4987 128.754674z m0 385.59849a128.805869 128.805869 0 1 0-128.4987-128.805869 128.959453 128.959453 0 0 0 128.4987 128.805869zM512 896a129.573789 129.573789 0 1 0-129.522594-129.573789A129.4714 129.4714 0 0 0 512 896z"  horiz-adv-x="1024" />

    
    <glyph glyph-name="icon_like-normal" unicode="&#59005;" d="M866.048 351.9488l-354.304-368.1792v-0.4608l-0.512 0.3584-353.792 368.1792s-108.544 87.04-108.544 197.6832a235.8272 235.8272 0 0 0 456.192 83.3536l6.144 1.5872h0.512l6.144-1.5872a236.1344 236.1344 0 0 0 456.704-83.3536c0-110.3872-108.544-197.5808-108.544-197.5808z m-130.048 361.984c-95.232 0-190.464-146.2784-218.624-220.16l-5.632 1.4848-6.144-1.4848c-28.16 73.7792-121.344 220.16-214.016 220.16a164.5568 164.5568 0 0 1-166.912-168.96 218.2656 218.2656 0 0 1 91.136-148.8896h-0.512l295.936-307.712v0.5632l0.512-0.4096 295.936 307.712a219.2384 219.2384 0 0 1 90.624 148.8896c0 108.0832-44.544 168.96-162.304 168.96z"  horiz-adv-x="1024" />

    
    <glyph glyph-name="icon_TrueorFalse" unicode="&#58994;" d="M1010.460444 234.723556l-136.078222-136.078223 134.940445-134.883555a53.248 53.248 0 0 0-75.264-75.264l-134.940445 134.883555-134.940444-134.940444a53.248 53.248 0 0 0-75.264 75.264l134.940444 134.940444-136.078222 136.135111a53.248 53.248 0 1 0 75.264 75.264l136.078222-136.135111 136.078222 136.078223a53.248 53.248 0 1 0 75.264-75.264zM119.864889-71.111111a42.666667 42.666667 0 0 0-60.359111 60.302222l851.057778 847.644445a42.666667 42.666667 0 0 0 60.359111-60.359112z m108.088889 512A227.157333 227.157333 0 1 0 455.111111 668.046222 227.157333 227.157333 0 0 0 227.953778 440.888889z m-1.308445 369.777778a141.368889 141.368889 0 1 1 141.368889-141.312A141.312 141.312 0 0 1 226.645333 810.666667z"  horiz-adv-x="1027" />

    
    <glyph glyph-name="icon_Matching" unicode="&#58995;" d="M849.238366 554.899189a169.134918 169.134918 0 0 0-82.362826 21.989801l-446.579495-446.975199a167.21293 167.21293 0 0 0 23.120381-83.832581 171.735254 171.735254 0 1 0-82.419355 144.431723l444.205276 444.374862a167.382517 167.382517 0 0 0-26.286009 89.542016A170.548144 170.548144 0 1 0 849.238366 554.899189zM92.710089 44.385338a83.549936 83.549936 0 1 1 83.493407 86.659034A85.132749 85.132749 0 0 1 92.710089 44.385338zM852.856225 809.279915a85.132749 85.132749 0 0 1-83.493407-86.659034 86.659034 86.659034 0 0 1 18.145826-51.554494 40.418271 40.418271 0 0 0 8.196712-5.652905 40.927032 40.927032 0 0 0 6.953073-10.514403 80.045135 80.045135 0 0 1 50.197796-19.163348 86.772092 86.772092 0 0 1 0 173.544184z"  horiz-adv-x="1026" />

    
    <glyph glyph-name="icon_Fillintheblank" unicode="&#58996;" d="M1024.001707 552.334222v-587.207111A92.615111 92.615111 0 0 0 931.898596-128H92.104818A92.615111 92.615111 0 0 0 0.001707-34.872889V802.929778A92.558222 92.558222 0 0 0 92.104818 896h839.793778A92.558222 92.558222 0 0 0 1024.001707 802.929778v-250.311111z m-92.103111 204.060445a46.250667 46.250667 0 0 1-46.023112 46.535111H138.127929a46.250667 46.250667 0 0 1-46.023111-46.535111v-744.732445a46.250667 46.250667 0 0 1 46.023111-46.535111h747.690667a46.307556 46.307556 0 0 1 46.08 46.535111V756.337778zM625.096818 156.444444a42.666667 42.666667 0 0 0 42.666666-42.666666 40.277333 40.277333 0 0 0-42.666666-39.822222l-205.312-1.649778a42.723556 42.723556 0 0 0-42.666667 42.666666 40.334222 40.334222 0 0 0 42.666667 39.822223l68.721778 0.568889-1.308445 457.329777H419.784818a42.723556 42.723556 0 0 0-42.666667 42.666667 40.334222 40.334222 0 0 0 42.666667 39.822222l205.312 1.592889a42.666667 42.666667 0 0 0 42.666666-42.666667 41.813333 41.813333 0 0 0-42.666666-41.585777H567.809707l0.625777-456.647111z"  horiz-adv-x="1024" />

    
    <glyph glyph-name="icon_Multiplechoice" unicode="&#58997;" d="M454.865231-30.147117v85.287231h568.581539v-85.287231H454.865231z m0 449.520565h568.581539v-85.287231H454.865231v85.287231z m0 362.357014h568.581539v-85.28723H454.865231v85.28723zM184.277277-115.036341a3.980071 3.980071 0 0 1-0.341149-0.511723 42.984764 42.984764 0 0 0-60.497076 0 3.184057 3.184057 0 0 1 0 0.454865l-110.987116 107.461911a42.643615 42.643615 0 0 0 60.326501 60.326501l80.568004-78.066245 179.55805 181.09322a42.643615 42.643615 0 0 0 60.326501-60.326501z m0 364.290192a3.980071 3.980071 0 0 0-0.341149-0.511723 42.81419 42.81419 0 0 0-60.497076 0 3.184057 3.184057 0 0 0 0 0.454865L12.451936 356.602046A42.643615 42.643615 0 0 0 72.778437 416.928547l80.568004-78.009387 179.55805 181.036362a42.643615 42.643615 0 1 0 60.326501-60.269643z m0 362.470731a3.980071 3.980071 0 0 0-0.341149-0.511723 42.81419 42.81419 0 0 0-60.497076 0 3.184057 3.184057 0 0 0 0 0.454865L12.451936 719.072777A42.643615 42.643615 0 0 0 72.778437 779.399278l80.568004-78.009387L332.904491 882.426253a42.643615 42.643615 0 1 0 60.326501-60.269643z"  horiz-adv-x="1025" />

    
    <glyph glyph-name="icon_move" unicode="&#58993;" d="M1012.1216 358.9632l-126.72-117.76a40.6528 40.6528 0 0 0-54.3232 0 33.8432 33.8432 0 0 0 0 50.3808l71.68 66.56H537.6v-342.4768l74.5984 74.5984a38.4 38.4 0 0 0 54.3232-54.3232l-126.72-126.72a40.3456 40.3456 0 0 0-55.6032 0l-126.72 126.72a38.4 38.4 0 0 0 54.3232 54.3232l48.9984-48.7424V358.4H121.088l71.68-66.56a33.8432 33.8432 0 0 0 0-50.3808 40.6528 40.6528 0 0 0-54.3232 0l-126.72 117.76a35.4816 35.4816 0 0 0 0 51.5584l126.72 117.76a40.6528 40.6528 0 0 0 54.3232 0 33.8432 33.8432 0 0 0 0-50.3808l-46.08-42.496H460.8V726.9376l-48.9984-48.9984a38.4 38.4 0 0 0-54.3232 54.3232L484.1984 858.9824a40.3456 40.3456 0 0 0 55.6032 0l126.72-126.72a38.4 38.4 0 0 0-54.3232-54.3232L537.6 752.5376V435.2h339.3024l-46.08 42.496a33.8432 33.8432 0 0 0 0 50.3808 40.6528 40.6528 0 0 0 54.3232 0l126.72-117.76a35.4816 35.4816 0 0 0 0.256-51.3536z"  horiz-adv-x="1024" />

    
    <glyph glyph-name="icon_handler1" unicode="&#58992;" d="M128 512A128 128 0 1 0 0 384a128 128 0 0 0 128 128z m384 0A128 128 0 1 0 384 384 128 128 0 0 0 512 512z m384 0A128 128 0 1 0 768 384a128 128 0 0 0 128 128z"  horiz-adv-x="1024" />

    
    <glyph glyph-name="icon_rating" unicode="&#58991;" d="M944.64 583.68l-491.9296-475.0848a51.2 51.2 0 0 0-72.3968 72.3968l491.9296 475.136A51.2 51.2 0 1 0 944.64 583.68zM376.32 391.5264l-101.7856-43.8272 6.912 110.592-73.1136 83.2512 107.264 27.5968 56.576 95.2832L431.616 570.88l108.0832-24.32L468.9408 460.8l10.24-110.2848z m382.6688 344.064H188.3136a41.6256 41.6256 0 0 1-41.4208-41.8816v-619.0592a41.6256 41.6256 0 0 1 41.4208-41.8816h570.5216a41.6768 41.6768 0 0 1 41.472 41.8816v252.2112L883.2 409.6v-376.9856a83.3536 83.3536 0 0 0-82.8928-83.8144H146.8928a83.3536 83.3536 0 0 0-82.8928 83.8144V735.4368A83.3024 83.3024 0 0 0 146.8928 819.2h653.4144a83.3024 83.3024 0 0 0 82.8928-83.7632l-82.8928-41.8816a41.6256 41.6256 0 0 1-41.472 41.8816z"  horiz-adv-x="1024" />

    
    <glyph glyph-name="icon_Popular" unicode="&#58987;" d="M658.415171-128.064728A137.417952 137.417952 0 0 1 582.553729-10.19469a600.936536 600.936536 0 0 0-194.184576 194.184576s-68.02933-190.559798-13.334008-298.979519c-159.231353 46.733755-248.750442 155.800759-246.355499 291.729962 4.789886 273.282427 167.969659 321.246018 258.912769 431.478129s57.608091 287.652086 57.608091 287.652086A250.951201 250.951201 0 0 0 647.281922 665.76182a642.362579 642.362579 0 0 0-28.804046-258.912768 209.201517 209.201517 0 0 1 86.347408 57.478634 383.44981 383.44981 0 0 1 57.608091 143.826043S906.19469 435.653097 906.19469 263.087737c0-149.845765-54.565866-342.800506-247.779519-391.152465z"  horiz-adv-x="1035" />

    
    <glyph glyph-name="icon_shareable" unicode="&#58988;" d="M791.488 213.12a165.632 165.632 0 0 1-102.4-35.392L397.056 355.776a161.664 161.664 0 0 1 0 55.872l292.032 178.048a165.632 165.632 0 0 1 102.4-35.392 170.624 170.624 0 1 1-167.936 170.624 173.952 173.952 0 0 1 2.496-27.904L333.952 518.912a164.928 164.928 0 0 1-102.08 35.392 170.624 170.624 0 0 1 0-341.184 164.928 164.928 0 0 1 102.08 35.392L626.048 70.4a173.952 173.952 0 0 1-2.496-27.904 167.936 167.936 0 1 1 167.936 170.624z"  horiz-adv-x="1024" />

    
    <glyph glyph-name="icon_Top-Ranked" unicode="&#58989;" d="M809.704889-100.596834c-183.045685-43.460568-513.985125-38.027997-596.496292 36.558007H108.519759V383.34937l114.467466-4.154319a1669.972313 1669.972313 0 0 0 171.221854 198.896009c114.020078 122.073065 161.571052 343.146747 198.129059 315.536504 156.010655-117.982659 6.39126-379.321278 27.482417-382.452995a2203.450781 2203.450781 0 0 1 255.650398 0c89.477639 4.026494 11.120792-593.556312-65.766064-611.771403z"  horiz-adv-x="1024" />

    
    <glyph glyph-name="icon_game-time" unicode="&#58990;" d="M967.277227 526.72a476.373333 476.373333 0 0 0 17.066666-124.16 470.698667 470.698667 0 0 0-154.453333-348.928l90.453333-90.624a41.514667 41.514667 0 0 0 0-58.069333 41.002667 41.002667 0 0 0-58.026666 0l-98.133334 98.432a467.968 467.968 0 0 0-501.76 0l-98.133333-98.432a41.002667 41.002667 0 0 0-58.026667 0 41.514667 41.514667 0 0 0 0 58.069333l90.453334 90.624a470.698667 470.698667 0 0 0-154.453334 348.928 476.330667 476.330667 0 0 0 17.066667 124.117333A204.544 204.544 0 0 0 325.57056 835.413333a469.333333 469.333333 0 0 0 375.466667 0 202.666667 202.666667 0 0 0 119.466666 39.210667 204.8 204.8 0 0 0 146.773334-347.904zM206.103893 792.533333a123.050667 123.050667 0 0 1-122.88-123.136 120.96 120.96 0 0 1 11.52-51.2 469.802667 469.802667 0 0 0 145.92 168.789334 122.837333 122.837333 0 0 1-34.56 5.589333z m307.2 0a389.973333 389.973333 0 1 1 389.12-389.973333A389.461333 389.461333 0 0 1 513.303893 792.576z m307.2 0a122.837333 122.837333 0 0 1-34.56-5.546666 473.984 473.984 0 0 0 145.92-168.789334 120.96 120.96 0 0 1 11.52 51.2 123.050667 123.050667 0 0 1-122.88 123.178667z m-81.92-451.541333h-245.76a41.002667 41.002667 0 0 0-40.96 41.045333V628.352a40.96 40.96 0 1 0 81.92 0v-205.226667h204.8a41.045333 41.045333 0 0 0 0-82.090666z"  horiz-adv-x="1025" />

    
    <glyph glyph-name="icon_star" unicode="&#58986;" d="M1024 512l-266.24-266.24 73.984-373.76-321.1264 194.56L192-128l73.3696 371.8656L0 512l352 32L512 896l160-352z"  horiz-adv-x="1024" />

    
    <glyph glyph-name="icon_alarm-clock" unicode="&#58977;" d="M512 384m-512 0a512 512 0 1 1 1024 0 512 512 0 1 1-1024 0ZM759.04 459.178667A238.784 238.784 0 0 0 768 394.666667a244.586667 244.586667 0 0 0-80.426667-181.333334l46.933334-47.082666a21.333333 21.333333 0 0 0-30.08-30.165334l-51.2 51.2a243.776 243.776 0 0 0-261.12 0l-51.2-51.2a21.333333 21.333333 0 0 0-30.08 30.165334L357.76 213.333333A244.586667 244.586667 0 0 0 277.333333 394.666667a238.784 238.784 0 0 0 8.96 64.512A105.6 105.6 0 0 0 256 533.333333a106.368 106.368 0 0 0 168.96 86.293334 244.48 244.48 0 0 0 195.413333 0 106.410667 106.410667 0 0 0 138.666667-160.448zM362.666667 597.333333a64 64 0 0 1-64-64 61.866667 61.866667 0 0 1 5.973333-26.581333 245.461333 245.461333 0 0 0 75.946667 87.701333A63.722667 63.722667 0 0 1 362.666667 597.333333z m160 0a202.666667 202.666667 0 1 1 202.666666-202.666666 202.666667 202.666667 0 0 1-202.666666 202.666666z m160 0a63.722667 63.722667 0 0 1-17.92-2.88 245.461333 245.461333 0 0 0 75.946666-87.701333A61.866667 61.866667 0 0 1 746.666667 533.333333a64 64 0 0 1-64 64z m-42.666667-234.666666h-128a21.333333 21.333333 0 0 0-21.333333 21.333333v128a21.333333 21.333333 0 0 0 42.666666 0v-106.666667h106.666667a21.333333 21.333333 0 0 0 0-42.666666z"  horiz-adv-x="1024" />

    
    <glyph glyph-name="icon_bell" unicode="&#58978;" d="M865.28 78.506667H161.28a95.402667 95.402667 0 0 0-91.306667 36.181333c-18.773333 36.437333 8.96 72.874667 43.946667 119.04a309.077333 309.077333 0 0 1 57.6 187.733333v98.56a339.541333 339.541333 0 1 0 678.4 0v-98.773333a293.930667 293.930667 0 0 1 55.466667-190.336c38.826667-46.378667 66.986667-79.872 49.493333-116.394667s-67.84-36.010667-89.6-36.010666zM147.626667 152.874667c3.84-0.256 8.533333-0.384 13.653333-0.384h711.253333c-7.68 9.941333-17.493333 21.674667-25.6 31.402666a362.112 362.112 0 0 0-72.533333 237.269334V520.021333a264.192 264.192 0 1 1-527.36 0v-98.773333a383.232 383.232 0 0 0-72.533333-231.68c-8.96-11.477333-19.626667-25.642667-26.88-36.736z m512-131.541334a148.906667 148.906667 0 0 0-294.826667 0h294.826667z"  horiz-adv-x="1024" />

    
    <glyph glyph-name="icon_notepad" unicode="&#58985;" d="M512 384m-512 0a512 512 0 1 1 1024 0 512 512 0 1 1-1024 0ZM661.333333 106.666667H362.666667a85.333333 85.333333 0 0 0-85.333334 85.333333V533.333333a85.333333 85.333333 0 0 0 85.333334 85.333334 42.666667 42.666667 0 0 0 42.666666 42.666666h213.333334a42.666667 42.666667 0 0 0 42.666666-42.666666 85.333333 85.333333 0 0 0 85.333334-85.333334v-341.333333a85.333333 85.333333 0 0 0-85.333334-85.333333z m-64 512h-170.666666a21.333333 21.333333 0 0 1 0-42.666667h170.666666a21.333333 21.333333 0 0 1 0 42.666667z m106.666667-85.333334a42.666667 42.666667 0 0 1-42.666667 42.666667 42.666667 42.666667 0 0 0-42.666666-42.666667H405.333333a42.666667 42.666667 0 0 0-42.666666 42.666667 42.666667 42.666667 0 0 1-42.666667-42.666667v-341.333333a42.666667 42.666667 0 0 1 42.666667-42.666667h298.666666a42.666667 42.666667 0 0 1 42.666667 42.666667V533.333333z m-85.333333-256H405.333333a21.333333 21.333333 0 0 0 0 42.666667h213.333334a21.333333 21.333333 0 0 0 0-42.666667z m0 128H405.333333a21.333333 21.333333 0 0 0 0 42.666667h213.333334a21.333333 21.333333 0 0 0 0-42.666667z"  horiz-adv-x="1024" />

    
    <glyph glyph-name="icon_sidebar_expand" unicode="&#58970;" d="M128 725.333333h768v-85.333333H128V725.333333z m384-384H128v85.333334h384v-85.333334z m170.666667 213.333334l213.333333-170.666667-213.333333-170.666667V554.666667z m213.333333-512H128v85.333333h768v-85.333333z"  horiz-adv-x="1024" />

    
    <glyph glyph-name="icon_sidebar_collapse" unicode="&#58971;" d="M512 341.333333v85.333334h384v-85.333334h-384zM128 725.333333h768v-85.333333H128V725.333333z m768-682.666666H128v85.333333h768v-85.333333zM341.333333 554.666667v-341.333334l-213.333333 170.666667z"  horiz-adv-x="1024" />

    
    <glyph glyph-name="icon_upload-fail" unicode="&#58963;" d="M910.222222-42.666667H113.777778a113.777778 113.777778 0 0 0-113.777778 113.777778V696.888889a113.777778 113.777778 0 0 0 113.777778 113.777778h796.444444a113.777778 113.777778 0 0 0 113.777778-113.777778v-625.777778a113.777778 113.777778 0 0 0-113.777778-113.777778z m56.888889 739.555556a56.888889 56.888889 0 0 1-56.888889 56.888889H113.777778a56.888889 56.888889 0 0 1-56.888889-56.888889v-625.777778a56.888889 56.888889 0 0 1 56.888889-56.888889h796.444444a56.888889 56.888889 0 0 1 56.888889 56.888889V696.888889z m-199.111111-256a56.888889 56.888889 0 1 0 56.888889 56.888889 56.888889 56.888889 0 0 0-56.888889-56.888889z m-85.333333-199.111111a526.222222 526.222222 0 0 1-341.333334 0 28.444444 28.444444 0 0 0 0 56.888889 627.285333 627.285333 0 0 0 171.52 28.444444A612.864 612.864 0 0 0 682.666667 298.666667a28.444444 28.444444 0 0 0 0-56.888889zM256 440.888889a56.888889 56.888889 0 1 0 56.888889 56.888889 56.888889 56.888889 0 0 0-56.888889-56.888889z"  horiz-adv-x="1024" />

    
    <glyph glyph-name="icon_search" unicode="&#58965;" d="M955.733333-95.709867l-204.8 171.861334v207.598933h-2.730666A273.066667 273.066667 0 1 1 682.666667 207.325867v-196.642134a448.1024 448.1024 0 1 0 194.56 159.1296l78.506666-65.8432v-199.68z"  horiz-adv-x="1024" />

    
    <glyph glyph-name="icon_picture" unicode="&#58962;" d="M921.6 0H102.4a102.4 102.4 0 0 0-102.4 102.4v563.2a102.4 102.4 0 0 0 102.4 102.4h819.2a102.4 102.4 0 0 0 102.4-102.4v-563.2a102.4 102.4 0 0 0-102.4-102.4z m25.6 694.0672h-870.4V240.64l236.4928 261.12a46.08 46.08 0 0 0 58.9824 0l232.8064-205.7216 138.9568 99.4304a46.08 46.08 0 0 0 58.9824 0l144.1792-156.5184V694.0672z m0-538.0608l-173.6704 160.1536-138.9568-99.4304a46.08 46.08 0 0 0-58.9824 0L342.784 422.4512l-266.24-266.752v-81.92h870.4v81.92zM665.6 460.8a51.2 51.2 0 1 0 51.2 51.2 51.2 51.2 0 0 0-51.2-51.2z"  horiz-adv-x="1024" />

    
    <glyph glyph-name="icon_Key-knowledge" unicode="&#58961;" d="M897.817244 516.618027h-163.766552l-268.096594-268.286285L391.974613 326.927041l252.921315 252.921315V769.539342l189.690987 126.460658v-189.690986h189.690986zM423.589777 603.559729A308.247853 308.247853 0 1 1 731.521479 295.311876a264.682156 264.682156 0 0 1-5.058427 50.584263l84.096338 83.590495a417.32017 417.32017 0 1 0-252.921316 252.921315L473.541737 598.817455a304.011421 304.011421 0 0 1-49.95196 4.742274z"  horiz-adv-x="1036" />

    
    <glyph glyph-name="icon_feedback" unicode="&#58964;" d="M764.245333 622.933333V657.066667a102.4 102.4 0 0 1-102.4 102.4h-409.6a102.4 102.4 0 0 1-102.4-102.4v-546.133334a102.4 102.4 0 0 1 102.4-102.4h170.666667v-68.266666h-204.8a136.533333 136.533333 0 0 0-136.533333 136.533333V691.2a136.533333 136.533333 0 0 0 136.533333 136.533333h477.866667c70.997333 0 136.533333-33.109333 136.533333-102.4z m-68.266666-614.4c58.709333 0 68.266667 45.738667 68.266666 102.4v34.133334l68.266667 102.4v-170.666667a136.533333 136.533333 0 0 0-136.533333-136.533333h-68.266667z m222.890666 646.485334a52.394667 52.394667 0 0 0 17.066667-70.314667l-320.512-543.744A905.1136 905.1136 0 0 0 508.245333-59.733333s8.533333 130.730667 22.528 154.624l320.512 544.085333a47.786667 47.786667 0 0 0 67.584 16.042667zM286.378667 588.8h273.066666a34.133333 34.133333 0 0 0 0-68.266667h-273.066666a34.133333 34.133333 0 0 0 0 68.266667z m0-170.666667h273.066666a34.133333 34.133333 0 0 0 0-68.266666h-273.066666a34.133333 34.133333 0 0 0 0 68.266666z"  horiz-adv-x="1024" />

    
    <glyph glyph-name="icon_data1" unicode="&#58880;" d="M819.2-25.6H204.8a153.6 153.6 0 0 0-153.6 153.6V537.6a153.6 153.6 0 0 0 153.6 153.6h51.2V742.4a51.2 51.2 0 0 0 102.4 0v-51.2h307.2V742.4a51.2 51.2 0 0 0 102.4 0v-51.2h51.2a153.6 153.6 0 0 0 153.6-153.6v-409.6a153.6 153.6 0 0 0-153.6-153.6z m73.472 637.1328H131.328v-557.4656h761.344V611.5328zM358.4 384H256V486.4h102.4v-102.4z m0-204.8H256v102.4h102.4v-102.4z m204.8 204.8H460.8V486.4h102.4v-102.4z m0-204.8H460.8v102.4h102.4v-102.4z m204.8 204.8h-102.4V486.4h102.4v-102.4z m0-204.8h-102.4v102.4h102.4v-102.4z"  horiz-adv-x="1024" />

    
    <glyph glyph-name="icon_Participants" unicode="&#58960;" d="M66.344421-128a484.675368 484.675368 0 0 0 945.205895 0H66.344421zM538.947368 249.263158l-107.789473-377.263158h215.578947zM538.947368 626.526316m-269.473684 0a269.473684 269.473684 0 1 1 538.947369 0 269.473684 269.473684 0 1 1-538.947369 0Z"  horiz-adv-x="1077" />

    
    <glyph glyph-name="icon_plays" unicode="&#58956;" d="M160-32a352 352 0 0 0 704 0h-704zM512 384a208.064 208.064 0 1 0 212.032 208A210.304 210.304 0 0 0 512 384z"  horiz-adv-x="1024" />

    
    <glyph glyph-name="icon_Qs" unicode="&#58957;" d="M448 96v128h576v-128H448z m0 576h576v-128H448v128z m-320-640a128 128 0 1 0 128 128 128 128 0 0 0-128-128z m0 448a128 128 0 1 0 128 128 128 128 0 0 0-128-128z"  horiz-adv-x="1024" />

    
    <glyph glyph-name="icon_limited-time" unicode="&#58958;" d="M956.416 635.52a438.976 438.976 0 0 1-244.096 182.4l22.912 67.84a514.432 514.432 0 0 0 284.8-215.04zM960 330.88a448 448 0 1 0-448 448 448 448 0 0 0 448-448z m-448 320a320 320 0 1 1 320-320 320 320 0 0 1-320 320z m-13.248-346.24a32 32 0 0 0-45.248 44.8l135.744 135.68a32 32 0 0 0 45.248-44.8zM67.584 635.52l-63.616 35.2A514.432 514.432 0 0 0 288.768 885.76l22.912-67.84a438.976 438.976 0 0 1-244.096-182.4z"  horiz-adv-x="1024" />

    
    <glyph glyph-name="icon_setting" unicode="&#58955;" d="M631.588571 860.854857a164.022857 164.022857 0 0 0-114.834285-53.248A149.942857 149.942857 0 0 0 402.285714 858.331429 55.990857 55.990857 0 0 1 363.154286 875.227429h-7.314286a49.664 49.664 0 0 1-9.508571-2.377143 448.402286 448.402286 0 0 1-168.594286-99.108572 46.921143 46.921143 0 0 1-14.628572-53.248 136.118857 136.118857 0 0 0 1.828572-83.602285 44.288 44.288 0 0 1 18.285714-50.249143l114.468572-70.619429a46.592 46.592 0 0 1 58.514285 8.923429 210.176 210.176 0 0 0 153.234286 65.499428 206.409143 206.409143 0 1 0 0-412.781714 210.176 210.176 0 0 0-153.234286 65.499429 46.592 46.592 0 0 1-58.514285 8.923428l-114.468572-70.619428a44.324571 44.324571 0 0 1-18.285714-50.285715 136.118857 136.118857 0 0 0-1.828572-83.602285 46.921143 46.921143 0 0 1 14.628572-53.248 448.365714 448.365714 0 0 1 168.594286-99.108572 49.664 49.664 0 0 1 9.508571-2.377143h7.314286a55.954286 55.954286 0 0 1 39.131428 16.896 149.942857 149.942857 0 0 0 114.468572 50.761143 164.022857 164.022857 0 0 0 114.834285-53.248 51.2 51.2 0 0 1 34.011429-16.896 42.130286 42.130286 0 0 1 17.188571 2.377143 636.086857 636.086857 0 0 1 163.474286 96.731429 44.909714 44.909714 0 0 1 16.822857 53.248 166.546286 166.546286 0 0 0 14.628572 128 163.913143 163.913143 0 0 0 99.84 72.521142 5.266286 5.266286 0 0 1 5.12 2.377143 66.998857 66.998857 0 0 1 31.451428 36.242286v2.413714a487.094857 487.094857 0 0 1 9.874286 99.108572v1.243428a487.131429 487.131429 0 0 1-9.874286 99.108572v2.377143a66.962286 66.962286 0 0 1-31.451428 36.242285 5.266286 5.266286 0 0 1-5.12 2.377143A163.949714 163.949714 0 0 0 877.714286 597.248a166.546286 166.546286 0 0 0-14.628572 128 44.873143 44.873143 0 0 1-16.822857 53.248A636.086857 636.086857 0 0 1 682.788571 875.227429 42.203429 42.203429 0 0 1 665.6 877.714286a50.980571 50.980571 0 0 1-34.011429-16.859429zM389.12 422.509714l-309.028571 96.658286a56.32 56.32 0 0 1-72.045715-44.946286 509.878857 509.878857 0 0 1 0-180.443428 56.32 56.32 0 0 1 72.045715-44.946286l309.028571 96.658286a39.716571 39.716571 0 0 1 0 77.019428z"  horiz-adv-x="1024" />

    
    <glyph glyph-name="icon_close-the-popup" unicode="&#58954;" d="M614.7584 384.768l236.8-232.8576a58.0608 58.0608 0 0 0 0-83.0976 60.4672 60.4672 0 0 0-84.48 0l-257.4848 239.1552-253.3376-239.1552a60.4672 60.4672 0 0 0-84.48 0 58.1632 58.1632 0 0 0 0 83.0976L408.576 384.768 171.776 617.6768a58.1632 58.1632 0 0 0 0 83.0976 60.5696 60.5696 0 0 0 84.48 0l253.3376-239.2064 257.4848 239.2064a60.5696 60.5696 0 0 0 84.48 0 58.0608 58.0608 0 0 0 0-83.0976z"  horiz-adv-x="1024" />

    
    <glyph glyph-name="icon_close-delete" unicode="&#58969;" d="M614.7584 384.768l236.8-232.8576a58.0608 58.0608 0 0 0 0-83.0976 60.4672 60.4672 0 0 0-84.48 0l-257.4848 239.1552-253.3376-239.1552a60.4672 60.4672 0 0 0-84.48 0 58.1632 58.1632 0 0 0 0 83.0976L408.576 384.768 171.776 617.6768a58.1632 58.1632 0 0 0 0 83.0976 60.5696 60.5696 0 0 0 84.48 0l253.3376-239.2064 257.4848 239.2064a60.5696 60.5696 0 0 0 84.48 0 58.0608 58.0608 0 0 0 0-83.0976z"  horiz-adv-x="1024" />

    
    <glyph glyph-name="icon_breadcrumbs_arrow" unicode="&#58952;" d="M746.1888 334.848L380.8256-4.096a78.1312 78.1312 0 0 0-104.3456 0 65.536 65.536 0 0 0-16.0768 74.752 52.6336 52.6336 0 0 0-5.12 22.528V678.912a51.2 51.2 0 0 0 4.9152 21.504 66.1504 66.1504 0 0 0 16.2816 74.752 78.1312 78.1312 0 0 0 104.3456 0l365.3632-338.944a71.68 71.68 0 0 0 0-101.376z"  horiz-adv-x="1024" />

    
    <glyph glyph-name="icon_homepage_yellow-sign" unicode="&#58953;" d="M512 384m-512 0a512 512 0 1 1 1024 0 512 512 0 1 1-1024 0Z"  horiz-adv-x="1024" />

    
    <glyph glyph-name="icon_facebook" unicode="&#58950;" d="M512 384m-512 0a512 512 0 1 1 1024 0 512 512 0 1 1-1024 0ZM512-128a525.472914 525.472914 0 0 0-87.771429 7.606857V237.714286h-102.4v131.657143h102.4v78.555428c0 63.049143 14.628571 143.067429 53.262629 173.056 57.519543 45.056 172.880457 48.420571 224.724114 40.96v-146.285714a204.8 204.8 0 0 1-67.291428-3.657143c-19.836343-5.266286-49.737143-6.875429-49.737143-40.228571v-102.4h131.657143l-14.628572-131.657143h-117.028571v-360.448A524.273371 524.273371 0 0 0 512-128z"  horiz-adv-x="1024" />

    
    <glyph glyph-name="icon_activity-closed" unicode="&#58948;" d="M992 352H640a32 32 0 0 0 0 64h352a32 32 0 0 0 0-64z m-324-219.52a32 32 0 0 0-43.712 11.84L498.016 352H32a32 32 0 0 0 0 64h427.104l-106.816 176a32 32 0 0 0 55.424 32l272-447.68a32.192 32.192 0 0 0-11.712-43.84z"  horiz-adv-x="1024" />

    
    <glyph glyph-name="icon_default-avatar" unicode="&#58949;" d="M511.999893 384.000107m-511.999893 0a511.999893 511.999893 0 1 1 1023.999787 0 511.999893 511.999893 0 1 1-1023.999787 0ZM511.999893-127.999787a509.013227 509.013227 0 0 0-337.066596 127.359974 431.29591 431.29591 0 0 0 674.346526 0A509.013227 509.013227 0 0 0 511.999893-127.999787z m0 309.333269a250.730614 250.730614 0 1 0 256.66128 250.666615A253.695947 253.695947 0 0 0 511.999893 181.333482zM637.866534 426.666764c-10.197331-60.373321-48.51199-127.999973-125.866641-127.999973s-115.647976 67.626653-125.86664 127.999973a461.439904 461.439904 0 0 0 127.167973 21.333329 439.466575 439.466575 0 0 0 124.565308-21.333329z"  horiz-adv-x="1024" />

    
    <glyph glyph-name="icon_fork" unicode="&#58946;" d="M512 384m-512 0a512 512 0 1 1 1024 0 512 512 0 1 1-1024 0ZM583.685128 384.769154l181.315172-181.520281a51.276915 51.276915 0 1 0-72.556835-72.30045l-181.263896 181.52028-181.315172-181.52028a51.276915 51.276915 0 0 0-72.505559 72.30045l181.315173 181.520281-181.315173 181.52028a51.276915 51.276915 0 0 0 72.505559 72.300451l181.315172-181.520281 181.263896 181.520281a51.276915 51.276915 0 1 0 72.556835-72.300451z"  horiz-adv-x="1024" />

    
    <glyph glyph-name="icon_hook" unicode="&#58947;" d="M512 384m-512 0a512 512 0 1 1 1024 0 512 512 0 1 1-1024 0ZM816.277216 515.012519s-261.204607-261.512268-293.252679-293.303956a88.247571 88.247571 0 0 0-126.243766 0L206.081923 412.458688a51.276915 51.276915 0 0 0 72.505558 72.300451l181.315173-181.520281 283.817727 284.074111a51.276915 51.276915 0 1 0 72.556835-72.30045z"  horiz-adv-x="1024" />

    
    <glyph glyph-name="icon_fork-delete" unicode="&#58968;" d="M512 384m-512 0a512 512 0 1 1 1024 0 512 512 0 1 1-1024 0ZM583.685128 384.769154l181.315172-181.520281a51.276915 51.276915 0 1 0-72.556835-72.30045l-181.263896 181.52028-181.315172-181.52028a51.276915 51.276915 0 0 0-72.505559 72.30045l181.315173 181.520281-181.315173 181.52028a51.276915 51.276915 0 0 0 72.505559 72.300451l181.315172-181.520281 181.263896 181.520281a51.276915 51.276915 0 1 0 72.556835-72.300451z"  horiz-adv-x="1024" />

    
    <glyph glyph-name="icon_asterisk" unicode="&#58942;" d="M508.736 294.72l101.248-167.68 114.752 76.16q-15.744 19.2-42.752 49.92l-90.048 101.12c73.024 12.16 137.28 24.32 192.768 37.12l-39.744 135.68c-38.016-14.72-79.488-32-124.48-52.48-33.024-15.36-54.528-25.6-64.512-29.44a1767.808 1767.808 0 0 1 20.224 200.96H442.688a1419.072 1419.072 0 0 1 18.048-199.04 1184 1184 0 0 1-175.552 87.68l-44.224-132.48q20.288-6.4 83.968-23.04c59.008-14.72 94.784-22.4 107.264-24.96-3.968-3.84-13.76-13.44-29.248-28.16-38.976-37.12-76.8-75.52-112.512-116.48l113.28-87.68q59.264 91.2 105.024 172.8z"  horiz-adv-x="1024" />

    
    <glyph glyph-name="icon_tips_gray" unicode="&#58943;" d="M512 384m-416 0a416 416 0 1 1 832 0 416 416 0 1 1-832 0ZM542.976 243.84a74.88 74.88 0 1 0-62.976-73.6 69.12 69.12 0 0 0 62.976 73.6z m3.52 428.16c33.984 0 61.44-37.76 61.44-144a707.072 707.072 0 0 0-61.44-240 707.648 707.648 0 0 0-61.376 240c0 106.24 27.456 144 61.376 144z"  horiz-adv-x="1024" />

    
    <glyph glyph-name="icon_tips_red" unicode="&#58944;" d="M512 384m-416 0a416 416 0 1 1 832 0 416 416 0 1 1-832 0ZM542.976 243.84a74.88 74.88 0 1 0-62.976-73.6 69.12 69.12 0 0 0 62.976 73.6zM546.56 672c33.92 0 61.44-37.76 61.44-144a707.072 707.072 0 0 0-61.44-240 707.072 707.072 0 0 0-61.44 240c0 106.24 27.52 144 61.44 144z"  horiz-adv-x="1024" />

    
    <glyph glyph-name="icon_warning" unicode="&#58945;" d="M510.976 165.76A115.2 115.2 0 1 0 384 51.2a121.216 121.216 0 0 0 126.976 114.56zM517.376 832c67.84 0 122.88-58.88 122.88-224s-122.88-373.12-122.88-373.12-122.88 208-122.88 373.12S449.216 832 517.12 832z"  horiz-adv-x="1024" />

    
    <glyph glyph-name="icon_grade" unicode="&#58937;" d="M992.896-96h-30.016a32 32 0 0 0-32 32v64a32 32 0 0 0 32 32h30.016a32 32 0 0 0 32-32v-64a32 32 0 0 0-32-32z m0.96 192h-31.04a31.36 31.36 0 0 0-31.04 32V539.52L832.896 482.56v-412.16a38.976 38.976 0 0 0-39.36-38.4h-625.28A38.976 38.976 0 0 0 128.896 70.4V501.76L0 576 497.344 864 1024.896 576v-448a31.36 31.36 0 0 0-31.04-32z m-786.176 12.8h546.432V437.12L497.344 288 207.68 455.68v-346.88z"  horiz-adv-x="1024" />

    
    <glyph glyph-name="icon_time" unicode="&#58939;" d="M512-128a512 512 0 1 0 512 512 512 512 0 0 0-512-512zM512 768a384 384 0 1 1 384-384 384 384 0 0 1-384 384z m91.84-615.68s-82.432 82.56-104.384 104.32a128.64 128.64 0 0 0-51.2 111.36v224a48 48 0 0 0 96 0v-243.84l128-128a48.192 48.192 0 1 0-68.416-67.84z"  horiz-adv-x="1024" />

    
    <glyph glyph-name="icon_subject" unicode="&#58940;" d="M867.392 383.36c86.336-96.64 124.416-192 88-255.36s-138.048-78.08-264.832-52.48C649.664-48 585.024-128 512-128s-136.96 80.64-177.792 204.16c-127.104-26.24-229.184-11.52-265.6 51.84s1.536 159.36 88 256.64C70.272 481.28 32.192 576.64 68.608 640s138.048 78.08 264.832 52.48C374.336 816 438.976 896 512 896s136.96-80.64 177.792-204.16c127.104 26.24 229.184 11.52 265.6-51.84s-1.792-159.36-88-256.64z m7.424-208.64c19.2 33.28-7.936 88.32-65.92 150.4-24.512-22.4-51.2-44.16-80-65.92a1025.536 1025.536 0 0 0-16.576-103.04c81.984-19.2 143.232-14.72 162.496 18.56z m-139.264 200.32c3.456 3.2 6.784 5.76 10.176 8.96-3.392 2.56-6.4 5.76-9.92 8.32V384c0-2.56-0.256-5.76-0.256-8.96zM646.4 384c0 26.24-1.024 51.2-2.432 76.16-20.736 13.44-42.176 26.88-64.768 40.32s-45.632 24.32-68.16 35.2c-21.888-10.88-43.968-22.4-66.24-35.2s-43.392-26.24-64-39.68c-1.6-24.96-3.392-49.92-3.392-76.8s1.024-51.2 2.432-76.16c20.736-13.44 42.176-26.88 64.768-40.32s45.632-24.32 68.16-35.2c21.888 10.88 43.968 22.4 66.24 35.2s43.392 26.24 64 39.68c1.6 24.96 3.392 49.92 3.392 76.8z m-17.664 202.24a100.992 100.992 0 0 1-12.48-4.48l7.744-3.84c2.56-1.28 4.736-3.2 7.232-4.48-0.704 4.48-1.664 8.32-2.496 12.8zM288.448 392.96c-3.456-3.2-6.784-5.76-10.176-8.96 3.392-2.56 6.4-5.76 9.92-8.32V384c0 2.56 0.256 5.76 0.256 8.96z m106.816-211.2a100.992 100.992 0 0 1 12.48 4.48l-7.744 3.84c-2.56 1.28-4.736 3.2-7.232 4.48 0.704-4.48 1.664-8.32 2.496-12.8z m235.392 12.8a37.952 37.952 0 0 0-6.4-4.48l-6.976-3.84a95.296 95.296 0 0 0 11.904-5.12c0.512 4.48 0.768 8.96 1.472 13.44zM512-35.2c38.4 0 73.024 51.2 97.536 132.48-32 10.24-64.448 22.4-97.536 36.48q-49.728-21.12-97.152-36.48c24.32-81.28 58.752-132.48 97.152-132.48z m-362.816 209.92c19.2-33.28 80.832-37.76 163.2-18.56a970.688 970.688 0 0 0-17.408 103.04c-29.12 21.76-55.232 43.52-79.808 65.92-58.048-61.44-85.248-117.12-65.984-150.4z m0 418.56c-19.2-33.28 7.936-88.32 65.92-150.4 24.512 22.4 51.2 44.16 80 65.92a1025.536 1025.536 0 0 0 16.576 103.04c-81.984 19.2-143.232 14.72-162.496-18.56z m244.16-19.84a37.952 37.952 0 0 0 6.4 4.48l6.976 3.84a95.296 95.296 0 0 0-11.904 5.12c-0.512-4.48-0.768-8.96-1.472-13.44zM512 803.2c-38.4 0-73.024-51.2-97.536-132.48 32-10.24 64.448-22.4 97.536-36.48q49.728 21.12 97.152 36.48C584.832 752 550.4 803.2 512 803.2z m362.816-209.92c-19.2 33.28-80.832 37.76-163.2 18.56a970.688 970.688 0 0 0 17.408-103.04c29.12-21.76 55.232-43.52 79.808-65.92 58.048 61.44 85.248 117.12 65.984 150.4z"  horiz-adv-x="1024" />

    
    <glyph glyph-name="icon_add_px1" unicode="&#58934;" d="M942.08 281.6h-327.68v-327.68a81.92 81.92 0 0 0-81.92-81.92h-40.96a81.92 81.92 0 0 0-81.92 81.92v327.68H81.92a81.92 81.92 0 0 0-81.92 81.92v40.96a81.92 81.92 0 0 0 81.92 81.92h327.68V814.08a81.92 81.92 0 0 0 81.92 81.92h40.96a81.92 81.92 0 0 0 81.92-81.92v-327.68h327.68a81.92 81.92 0 0 0 81.92-81.92v-40.96a81.92 81.92 0 0 0-81.92-81.92z"  horiz-adv-x="1024" />

    
    <glyph glyph-name="icon_add-image-title" unicode="&#58935;" d="M983.04 322.56H573.44v-409.6a40.96 40.96 0 0 0-40.96-40.96h-40.96a40.96 40.96 0 0 0-40.96 40.96V322.56H40.96a40.96 40.96 0 0 0-40.96 40.96v40.96a40.96 40.96 0 0 0 40.96 40.96h409.6V855.04a40.96 40.96 0 0 0 40.96 40.96h40.96a40.96 40.96 0 0 0 40.96-40.96v-409.6h409.6a40.96 40.96 0 0 0 40.96-40.96v-40.96a40.96 40.96 0 0 0-40.96-40.96z"  horiz-adv-x="1024" />

    
    <glyph glyph-name="icon_add_px" unicode="&#58930;" d="M896 288H608V0a96 96 0 0 0-192 0V288H128a96 96 0 0 0 0 192h288V768a96 96 0 0 0 192 0v-288H896a96 96 0 0 0 0-192z"  horiz-adv-x="1024" />

    
    <glyph glyph-name="icon_draft" unicode="&#58931;" d="M928 192l-320-320h-384a128 128 0 0 0-128 128V768a128 128 0 0 0 128 128h576a128 128 0 0 0 128-128v-576z m-128 576h-576v-768h384v128a64 64 0 0 0 64 64h128V768z m-512-176A48.192 48.192 0 0 0 336 640h352a48 48 0 0 0 0-96h-352a48.192 48.192 0 0 0-48 48zM336 384h224a48 48 0 0 0 0-96h-224a48 48 0 0 0 0 96z"  horiz-adv-x="1024" />

    
    <glyph glyph-name="icon_Log-out" unicode="&#58932;" d="M983.296 220.8a64 64 0 0 0-18.56-46.72l-214.976-215.04a64.128 64.128 0 0 0-90.496 90.88l110.336 110.08h-345.6a64 64 0 0 0 0 128h345.6l-110.208 110.08a64.128 64.128 0 0 0 90.496 90.88l214.976-215.04a63.488 63.488 0 0 0 18.56-46.08c0-1.28 0.704-2.56 0.704-3.84a17.6 17.6 0 0 0-0.832-3.2zM680 736h-512v-704h192v-128h-192a128 128 0 0 0-128 128v704a128 128 0 0 0 128 128h512a128 128 0 0 0 128-128v-128h-128v128z"  horiz-adv-x="1024" />

    
    <glyph glyph-name="icon_upload" unicode="&#58933;" d="M896-66.88H128a64 64 0 0 0-64 64v320a64 64 0 0 0 64 64 64 64 0 0 0 64-64v-256h640v256a64 64 0 0 0 128 0v-320a64 64 0 0 0-64-64z m-75.008 522.88a64 64 0 0 0-90.496 0L576 610.88v-357.76a64 64 0 0 0-128 0v357.76l-154.56-154.88a64 64 0 0 0-90.496 0 64.512 64.512 0 0 0 0 90.88l239.936 239.36a62.976 62.976 0 0 0 16.064 32 89.984 89.984 0 0 0 106.048 0 61.12 61.12 0 0 0 16.64-32l239.36-239.36a64.384 64.384 0 0 0 0-90.88z"  horiz-adv-x="1024" />

    
    <glyph glyph-name="icon_draft-copy" unicode="&#58976;" d="M928 192l-320-320h-384a128 128 0 0 0-128 128V768a128 128 0 0 0 128 128h576a128 128 0 0 0 128-128v-576z m-128 576h-576v-768h384v128a64 64 0 0 0 64 64h128V768z m-512-176A48.192 48.192 0 0 0 336 640h352a48 48 0 0 0 0-96h-352a48.192 48.192 0 0 0-48 48zM336 384h224a48 48 0 0 0 0-96h-224a48 48 0 0 0 0 96z"  horiz-adv-x="1024" />

    
    <glyph glyph-name="icon_arrow_down" unicode="&#58924;" d="M851.5584 488.192l-295.6288-290.816a66.56 66.56 0 0 0-88.4736 0l-295.68 290.816a57.9584 57.9584 0 0 0 0 82.944 60.3136 60.3136 0 0 0 84.5312 0l255.3856-250.88 255.3856 250.88a60.2624 60.2624 0 0 0 84.48 0 57.856 57.856 0 0 0 0-82.944z"  horiz-adv-x="1024" />

    
    <glyph glyph-name="icon_arrow_right" unicode="&#58925;" d="M699.392 340.736l-291.84-296.448a57.9584 57.9584 0 0 0-83.3024 0 60.3648 60.3648 0 0 0 0 84.48l251.904 256-251.904 256.512a60.3648 60.3648 0 0 0 0 84.48 57.9584 57.9584 0 0 0 83.3024 0l291.84-296.448a66.56 66.56 0 0 0 0-88.576z"  horiz-adv-x="1024" />

    
    <glyph glyph-name="icon_arrow_left" unicode="&#58926;" d="M698.7776 641.28l-251.904-256.512 251.904-256a60.3648 60.3648 0 0 0 0-84.48 57.9584 57.9584 0 0 0-83.3024 0l-291.84 296.448a66.56 66.56 0 0 0 0 88.576l291.84 296.448a57.9584 57.9584 0 0 0 83.3024 0 60.3648 60.3648 0 0 0 0-84.48z"  horiz-adv-x="1024" />

    
    <glyph glyph-name="icon_arrow_up" unicode="&#58927;" d="M851.5584 197.632a60.2624 60.2624 0 0 0-84.48 0L511.6928 449.024l-255.3856-251.392a60.2624 60.2624 0 0 0-84.48 0 57.856 57.856 0 0 0 0 82.944L467.456 571.392a66.56 66.56 0 0 0 88.4736 0l295.6288-290.816a57.856 57.856 0 0 0 0-82.944z"  horiz-adv-x="1024" />

    
    <glyph glyph-name="icon_arrow_up-copy" unicode="&#58973;" d="M851.5584 197.63199999999995a60.2624 60.2624 0 0 0-84.48 0L511.6928 449.024l-255.3856-251.392a60.2624 60.2624 0 0 0-84.48 0 57.856 57.856 0 0 0 0 82.944L467.456 571.392a66.56 66.56 0 0 0 88.4736 0l295.6288-290.816a57.856 57.856 0 0 0 0-82.944z"  horiz-adv-x="1024" />

    
    <glyph glyph-name="icon_arrow_left-copy" unicode="&#58974;" d="M698.7776 641.28l-251.904-256.512 251.904-256a60.3648 60.3648 0 0 0 0-84.48 57.9584 57.9584 0 0 0-83.3024 0l-291.84 296.448a66.56 66.56 0 0 0 0 88.576l291.84 296.448a57.9584 57.9584 0 0 0 83.3024 0 60.3648 60.3648 0 0 0 0-84.48z"  horiz-adv-x="1024" />

    
    <glyph glyph-name="icon_arrow_right-copy" unicode="&#58975;" d="M699.392 340.736l-291.84-296.448a57.9584 57.9584 0 0 0-83.3024 0 60.3648 60.3648 0 0 0 0 84.48l251.904 256-251.904 256.512a60.3648 60.3648 0 0 0 0 84.48 57.9584 57.9584 0 0 0 83.3024 0l291.84-296.448a66.56 66.56 0 0 0 0-88.576z"  horiz-adv-x="1024" />

    
    <glyph glyph-name="icon_data" unicode="&#58923;" d="M819.2-25.6H204.8a153.6 153.6 0 0 0-153.6 153.6V537.6a153.6 153.6 0 0 0 153.6 153.6h51.2V742.4a51.2 51.2 0 0 0 102.4 0v-51.2h307.2V742.4a51.2 51.2 0 0 0 102.4 0v-51.2h51.2a153.6 153.6 0 0 0 153.6-153.6v-409.6a153.6 153.6 0 0 0-153.6-153.6z m73.472 637.1328H131.328v-557.4656h761.344V611.5328zM358.4 384H256V486.4h102.4v-102.4z m0-204.8H256v102.4h102.4v-102.4z m204.8 204.8H460.8V486.4h102.4v-102.4z m0-204.8H460.8v102.4h102.4v-102.4z m204.8 204.8h-102.4V486.4h102.4v-102.4z m0-204.8h-102.4v102.4h102.4v-102.4z"  horiz-adv-x="1024" />

    
    <glyph glyph-name="icon_delete-copy" unicode="&#58981;" d="M883.2 588.8H140.8a38.4 38.4 0 0 0 0 76.8h742.4a38.4 38.4 0 0 0 0-76.8z m-486.4-76.8a38.4 38.4 0 0 0 38.4-38.4v-332.8a38.4 38.4 0 0 0-38.4-38.4 38.4 38.4 0 0 0-38.4 38.4v332.8a38.3488 38.3488 0 0 0 38.4 38.4z m204.8 0a38.4 38.4 0 0 0 38.4-38.4v-332.8a38.4 38.4 0 0 0-38.4-38.4 38.4 38.4 0 0 0-38.4 38.4v332.8a38.3488 38.3488 0 0 0 38.4 38.4z m166.4-614.4H256a93.4912 93.4912 0 0 0-102.4 102.4V473.6a38.4 38.4 0 0 0 76.8 0v-460.8a22.7328 22.7328 0 0 1 20.9408-27.9552H772.608s20.992-2.4064 20.992 27.9552v460.8a38.4 38.4 0 0 0 76.8 0s-0.3584-403.0976-0.3584-478.3104A90.4704 90.4704 0 0 0 768-102.39999999999998zM588.8 614.4V691.2a77.7216 77.7216 0 1 1-153.6 0v-76.8H358.4V691.2a155.4432 155.4432 0 1 0 307.2 0v-76.8h-76.8z"  horiz-adv-x="1024" />

    
    <glyph glyph-name="icon_delete-copy-copy" unicode="&#58982;" d="M883.2 588.8H140.8a38.4 38.4 0 0 0 0 76.8h742.4a38.4 38.4 0 0 0 0-76.8z m-486.4-76.8a38.4 38.4 0 0 0 38.4-38.4v-332.8a38.4 38.4 0 0 0-38.4-38.4 38.4 38.4 0 0 0-38.4 38.4v332.8a38.3488 38.3488 0 0 0 38.4 38.4z m204.8 0a38.4 38.4 0 0 0 38.4-38.4v-332.8a38.4 38.4 0 0 0-38.4-38.4 38.4 38.4 0 0 0-38.4 38.4v332.8a38.3488 38.3488 0 0 0 38.4 38.4z m166.4-614.4H256a93.4912 93.4912 0 0 0-102.4 102.4V473.6a38.4 38.4 0 0 0 76.8 0v-460.8a22.7328 22.7328 0 0 1 20.9408-27.9552H772.608s20.992-2.4064 20.992 27.9552v460.8a38.4 38.4 0 0 0 76.8 0s-0.3584-403.0976-0.3584-478.3104A90.4704 90.4704 0 0 0 768-102.39999999999998zM588.8 614.4V691.2a77.7216 77.7216 0 1 1-153.6 0v-76.8H358.4V691.2a155.4432 155.4432 0 1 0 307.2 0v-76.8h-76.8z"  horiz-adv-x="1024" />

    
    <glyph glyph-name="icon_link-copy" unicode="&#58983;" d="M306.0736 135.42399999999998a37.9904 37.9904 0 0 0-26.8288 64.8704l411.4944 415.2832a37.9904 37.9904 0 0 0 53.7088-53.7088L332.8 146.5344a37.888 37.888 0 0 0-26.7264-11.1104z m187.0848 92.16a158.72 158.72 0 0 0-43.776-152.5248l-56.32-51.456a171.008 171.008 0 0 0-242.1248 241.4592l52.5824 57.3952a166.5024 166.5024 0 0 0 166.1952 43.264l59.2896 59.3408a246.016 246.016 0 0 1-279.1936-48.8448l-52.1728-57.0368a246.9376 246.9376 0 1 1 349.1328-349.2864l55.7568 51.2a237.2608 237.2608 0 0 1 50.6368 266.8544z m432.384 570.7264a246.6816 246.6816 0 0 1-349.1328 0l-55.7056-51.2a246.9888 246.9888 0 0 1-47.2576-282.6752l58.9312 58.9312a170.1376 170.1376 0 0 0 41.6256 169.6256l56.32 51.456a171.008 171.008 0 0 0 242.1248-241.4592l-56.32-56.32a169.8816 169.8816 0 0 0-120.8832-50.0736 157.3888 157.3888 0 0 0-33.024 1.1264l-60.5184-60.5696a238.2848 238.2848 0 0 1 93.5424-16.5376 245.76 245.76 0 0 1 174.5408 72.3456l55.7568 55.808a247.04 247.04 0 0 1 0 349.44z"  horiz-adv-x="1024" />

    
    <glyph glyph-name="icon_delete-copy-copy1" unicode="&#59039;" d="M883.2 588.8H140.8a38.4 38.4 0 0 0 0 76.8h742.4a38.4 38.4 0 0 0 0-76.8z m-486.4-76.8a38.4 38.4 0 0 0 38.4-38.4v-332.8a38.4 38.4 0 0 0-38.4-38.4 38.4 38.4 0 0 0-38.4 38.4v332.8a38.3488 38.3488 0 0 0 38.4 38.4z m204.8 0a38.4 38.4 0 0 0 38.4-38.4v-332.8a38.4 38.4 0 0 0-38.4-38.4 38.4 38.4 0 0 0-38.4 38.4v332.8a38.3488 38.3488 0 0 0 38.4 38.4z m166.4-614.4H256a93.4912 93.4912 0 0 0-102.4 102.4V473.6a38.4 38.4 0 0 0 76.8 0v-460.8a22.7328 22.7328 0 0 1 20.9408-27.9552H772.608s20.992-2.4064 20.992 27.9552v460.8a38.4 38.4 0 0 0 76.8 0s-0.3584-403.0976-0.3584-478.3104A90.4704 90.4704 0 0 0 768-102.39999999999998zM588.8 614.4V691.2a77.7216 77.7216 0 1 1-153.6 0v-76.8H358.4V691.2a155.4432 155.4432 0 1 0 307.2 0v-76.8h-76.8z"  horiz-adv-x="1024" />

    
    <glyph glyph-name="icon_link-copy-copy" unicode="&#58984;" d="M306.0736 135.42399999999998a37.9904 37.9904 0 0 0-26.8288 64.8704l411.4944 415.2832a37.9904 37.9904 0 0 0 53.7088-53.7088L332.8 146.5344a37.888 37.888 0 0 0-26.7264-11.1104z m187.0848 92.16a158.72 158.72 0 0 0-43.776-152.5248l-56.32-51.456a171.008 171.008 0 0 0-242.1248 241.4592l52.5824 57.3952a166.5024 166.5024 0 0 0 166.1952 43.264l59.2896 59.3408a246.016 246.016 0 0 1-279.1936-48.8448l-52.1728-57.0368a246.9376 246.9376 0 1 1 349.1328-349.2864l55.7568 51.2a237.2608 237.2608 0 0 1 50.6368 266.8544z m432.384 570.7264a246.6816 246.6816 0 0 1-349.1328 0l-55.7056-51.2a246.9888 246.9888 0 0 1-47.2576-282.6752l58.9312 58.9312a170.1376 170.1376 0 0 0 41.6256 169.6256l56.32 51.456a171.008 171.008 0 0 0 242.1248-241.4592l-56.32-56.32a169.8816 169.8816 0 0 0-120.8832-50.0736 157.3888 157.3888 0 0 0-33.024 1.1264l-60.5184-60.5696a238.2848 238.2848 0 0 1 93.5424-16.5376 245.76 245.76 0 0 1 174.5408 72.3456l55.7568 55.808a247.04 247.04 0 0 1 0 349.44z"  horiz-adv-x="1024" />

    
    <glyph glyph-name="icon_hidden-answers" unicode="&#58916;" d="M617.1648 630.528a289.5872 289.5872 0 0 1-108.6976 22.528c-234.0864 0-380.3648-281.088-380.3648-281.088a711.68 711.68 0 0 1 96.1536-134.144l-50.176-50.176a843.8784 843.8784 0 0 0-148.48 184.32s185.2416 332.288 481.7408 332.288a389.12 389.12 0 0 0 151.7056-31.744zM512 551.168a174.4896 174.4896 0 0 0 23.2448-2.56l-200.1408-199.68a175.5648 175.5648 0 0 0-2.304 23.04 179.2 179.2 0 0 0 179.2 179.2z m0-358.4a173.568 173.568 0 0 0-23.2448 2.56l200.0896 199.68a167.168 167.168 0 0 0 2.3552-23.04 179.2 179.2 0 0 0-179.2-179.2z m-108.1344-82.432a305.152 305.152 0 0 1 104.6016-19.456c220.16 0 387.3792 281.088 387.3792 281.088a827.0848 827.0848 0 0 1-100.4544 130.048l48.896 48.64a990.464 990.464 0 0 0 154.112-178.688s-211.7632-332.288-490.7008-332.288a415.232 415.232 0 0 0-146.5344 27.648zM977.6128 846.08a38.4512 38.4512 0 0 0 0-54.272L109.2096-76.544a38.4 38.4 0 0 0-54.272 54.272L923.2896 846.08a38.7072 38.7072 0 0 0 54.3232 0z"  horiz-adv-x="1024" />

    
    <glyph glyph-name="icon_add-answers" unicode="&#58917;" d="M870.4 332.8h-307.2v-307.2a51.2 51.2 0 0 0-102.4 0v307.2H153.6a51.2 51.2 0 0 0 0 102.4h307.2V742.4a51.2 51.2 0 0 0 102.4 0v-307.2h307.2a51.2 51.2 0 0 0 0-102.4z"  horiz-adv-x="1024" />

    
    <glyph glyph-name="icon_link" unicode="&#58918;" d="M306.0736 135.424a37.9904 37.9904 0 0 0-26.8288 64.8704l411.4944 415.2832a37.9904 37.9904 0 0 0 53.7088-53.7088L332.8 146.5344a37.888 37.888 0 0 0-26.7264-11.1104z m187.0848 92.16a158.72 158.72 0 0 0-43.776-152.5248l-56.32-51.456a171.008 171.008 0 0 0-242.1248 241.4592l52.5824 57.3952a166.5024 166.5024 0 0 0 166.1952 43.264l59.2896 59.3408a246.016 246.016 0 0 1-279.1936-48.8448l-52.1728-57.0368a246.9376 246.9376 0 1 1 349.1328-349.2864l55.7568 51.2a237.2608 237.2608 0 0 1 50.6368 266.8544z m432.384 570.7264a246.6816 246.6816 0 0 1-349.1328 0l-55.7056-51.2a246.9888 246.9888 0 0 1-47.2576-282.6752l58.9312 58.9312a170.1376 170.1376 0 0 0 41.6256 169.6256l56.32 51.456a171.008 171.008 0 0 0 242.1248-241.4592l-56.32-56.32a169.8816 169.8816 0 0 0-120.8832-50.0736 157.3888 157.3888 0 0 0-33.024 1.1264l-60.5184-60.5696a238.2848 238.2848 0 0 1 93.5424-16.5376 245.76 245.76 0 0 1 174.5408 72.3456l55.7568 55.808a247.04 247.04 0 0 1 0 349.44z"  horiz-adv-x="1024" />

    
    <glyph glyph-name="icon_delete" unicode="&#58920;" d="M883.2 588.8H140.8a38.4 38.4 0 0 0 0 76.8h742.4a38.4 38.4 0 0 0 0-76.8z m-486.4-76.8a38.4 38.4 0 0 0 38.4-38.4v-332.8a38.4 38.4 0 0 0-38.4-38.4 38.4 38.4 0 0 0-38.4 38.4v332.8a38.3488 38.3488 0 0 0 38.4 38.4z m204.8 0a38.4 38.4 0 0 0 38.4-38.4v-332.8a38.4 38.4 0 0 0-38.4-38.4 38.4 38.4 0 0 0-38.4 38.4v332.8a38.3488 38.3488 0 0 0 38.4 38.4z m166.4-614.4H256a93.4912 93.4912 0 0 0-102.4 102.4V473.6a38.4 38.4 0 0 0 76.8 0v-460.8a22.7328 22.7328 0 0 1 20.9408-27.9552H772.608s20.992-2.4064 20.992 27.9552v460.8a38.4 38.4 0 0 0 76.8 0s-0.3584-403.0976-0.3584-478.3104A90.4704 90.4704 0 0 0 768-102.4zM588.8 614.4V691.2a77.7216 77.7216 0 1 1-153.6 0v-76.8H358.4V691.2a155.4432 155.4432 0 1 0 307.2 0v-76.8h-76.8z"  horiz-adv-x="1024" />

    
    <glyph glyph-name="icon_show-answers" unicode="&#58921;" d="M507.4944 51.712C209.2544 51.712 25.7536 384 25.7536 384s185.2416 332.288 481.7408 332.288c280.7296 0 490.7008-332.288 490.7008-332.288s-211.7632-332.288-490.7008-332.288z m0.9728 613.376C274.3808 665.088 128.1024 384 128.1024 384s144.896-281.088 380.3648-281.088c220.16 0 387.328 281.088 387.328 281.088s-165.7344 281.088-387.328 281.088zM512 204.8a179.2 179.2 0 1 0 179.2 179.2 179.2 179.2 0 0 0-179.2-179.2z m-76.8 307.2a51.2 51.2 0 1 1 51.2-51.2 51.2 51.2 0 0 1-51.2 51.2z"  horiz-adv-x="1024" />

    
    <glyph glyph-name="icon_edit" unicode="&#58922;" d="M919.04 709.2736l-491.8784-475.0848a51.2 51.2 0 0 0-72.448 72.3968l491.9296 475.0848a51.2 51.2 0 0 0 72.3968-72.3968zM214.0672 707.584a41.6768 41.6768 0 0 1-41.472-41.9328v-567.808a41.6768 41.6768 0 0 1 41.472-41.9328h570.4704a41.6768 41.6768 0 0 1 41.472 41.9328V503.6544l82.7904 82.7392v-530.6368a83.3536 83.3536 0 0 0-82.8928-83.7632H172.4928a83.3536 83.3536 0 0 0-82.8928 83.7632V707.4304a83.3536 83.3536 0 0 0 82.8928 83.7632H704l-83.7632-83.7632H213.9648z"  horiz-adv-x="1024" />

    
    <glyph glyph-name="plus-copy" unicode="&#58959;" d="M870.4 332.79999999999995h-307.2v-307.2a51.2 51.2 0 0 0-102.4 0v307.2H153.6a51.2 51.2 0 0 0 0 102.4h307.2V742.4a51.2 51.2 0 0 0 102.4 0v-307.2h307.2a51.2 51.2 0 0 0 0-102.4z"  horiz-adv-x="1024" />

    
    <glyph glyph-name="icon_Main-menu_My-Activities" unicode="&#58910;" d="M972.8 768V-128l-460.8 384zM51.2 896h921.6L51.2-64V896z"  horiz-adv-x="1024" />

    
    <glyph glyph-name="icon_Activity-Detail_question" unicode="&#58911;" d="M25.6 844.8h614.4v-409.6H25.6zM25.6 435.2h256l-256-256V435.2zM384 640h614.4v-409.6h-614.4zM998.4 230.4h-307.2l307.2-307.2v307.2z"  horiz-adv-x="1024" />

    
    <glyph glyph-name="icon_Create-a-new-activity_edit-activity" unicode="&#58912;" d="M51.2 55.1936h921.6v-153.6H51.2zM844.8 856.9856a76.8 76.8 0 0 0 28.1088-104.9088l-371.2-591.7184-133.12 76.8 371.2 591.7184A76.8 76.8 0 0 0 844.8 856.9856zM358.4 208.7936l153.6-102.4-256-204.8z"  horiz-adv-x="1024" />

    
    <glyph glyph-name="icon_Main-menu_My-Assignments" unicode="&#58913;" d="M512.768 870.2976L1025.536 666.368 512.768 462.4896-0.0512 666.368zM0.768 563.968l460.8-204.8v-460.8l-460.8 153.6v512zM1024.768 563.968l-460.8-204.8v-460.8l460.8 153.6v512z"  horiz-adv-x="1025" />

    
    <glyph glyph-name="icon_Main-menu_JSA-Activities" unicode="&#58914;" d="M563.2 896h460.8v-460.8h-460.8zM563.2 332.8h460.8v-460.8h-460.8zM236.8 332.8L460.8-128H0zM230.4 665.6m-230.4 0a230.4 230.4 0 1 1 460.8 0 230.4 230.4 0 1 1-460.8 0Z"  horiz-adv-x="1024" />

    
    <glyph glyph-name="icon_navbar_homework" unicode="&#58907;" d="M896 234.666667s-291.584-341.333333-384-341.333334-384 341.333333-384 341.333334v512a128 128 0 0 0 128 128h512a128 128 0 0 0 128-128v-512zM341.333333 789.333333H256a42.666667 42.666667 0 0 1-42.666667-42.666666v-384L341.333333 426.666667V789.333333z m256 0h-170.666666v-368.64l90.666666-58.026666L597.333333 418.133333V789.333333z m213.333334-42.666666a42.666667 42.666667 0 0 1-42.666667 42.666666h-85.333333V426.666667l128-64v384z m-170.666667-384l-128-128-128 128-170.666667-85.333334a2721.493333 2721.493333 0 0 1 177.450667-209.066666 256.682667 256.682667 0 0 0 120.704 38.4 261.461333 261.461333 0 0 0 121.685333-38.4A2717.866667 2717.866667 0 0 1 810.666667 277.333333z"  horiz-adv-x="1024" />

    
    <glyph glyph-name="icon_navbar_homework-copy" unicode="&#58967;" d="M896 234.66666699999996s-291.584-341.333333-384-341.333334-384 341.333333-384 341.333334v512a128 128 0 0 0 128 128h512a128 128 0 0 0 128-128v-512zM341.333333 789.333333H256a42.666667 42.666667 0 0 1-42.666667-42.666666v-384L341.333333 426.666667V789.333333z m256 0h-170.666666v-368.64l90.666666-58.026666L597.333333 418.133333V789.333333z m213.333334-42.666666a42.666667 42.666667 0 0 1-42.666667 42.666666h-85.333333V426.666667l128-64v384z m-170.666667-384l-128-128-128 128-170.666667-85.333334a2721.493333 2721.493333 0 0 1 177.450667-209.066666 256.682667 256.682667 0 0 0 120.704 38.4 261.461333 261.461333 0 0 0 121.685333-38.4A2717.866667 2717.866667 0 0 1 810.666667 277.33333300000004z"  horiz-adv-x="1024" />

    
    <glyph glyph-name="icon_navbar_join-an-activity-copy" unicode="&#58966;" d="M832-85.33333300000004h-384l85.333333 85.333333h298.666667a85.333333 85.333333 0 0 1 85.333333 85.333333V682.666667a85.333333 85.333333 0 0 1-85.333333 85.333333h-554.666667a85.333333 85.333333 0 0 1-85.333333-85.333333v-341.333334h-85.333333V682.666667a170.666667 170.666667 0 0 0 170.666666 170.666666h554.666667a170.666667 170.666667 0 0 0 170.666667-170.666666v-597.333334a170.666667 170.666667 0 0 0-170.666667-170.666666z m-85.333333 384h-170.666667v85.333333h170.666667v-85.333333z m-298.666667 298.666666h298.666667v-85.333333h-298.666667V597.333333z m77.994667-461.994666a40.96 40.96 0 0 0-21.333334-11.093334l-159.573333-159.573333a42.666667 42.666667 0 0 0-60.373333 60.330667L387.669333 128H64a42.666667 42.666667 0 0 0 0 85.333333h323.669333l-103.04 102.997334a42.666667 42.666667 0 0 0 60.373334 60.373333l159.914666-159.957333a41.216 41.216 0 0 0 21.077334-10.709334 59.989333 59.989333 0 0 0 0-70.698666z"  horiz-adv-x="1024" />

    
    <glyph glyph-name="icon_navbar_join-an-activity" unicode="&#58905;" d="M832-85.333333h-384l85.333333 85.333333h298.666667a85.333333 85.333333 0 0 1 85.333333 85.333333V682.666667a85.333333 85.333333 0 0 1-85.333333 85.333333h-554.666667a85.333333 85.333333 0 0 1-85.333333-85.333333v-341.333334h-85.333333V682.666667a170.666667 170.666667 0 0 0 170.666666 170.666666h554.666667a170.666667 170.666667 0 0 0 170.666667-170.666666v-597.333334a170.666667 170.666667 0 0 0-170.666667-170.666666z m-85.333333 384h-170.666667v85.333333h170.666667v-85.333333z m-298.666667 298.666666h298.666667v-85.333333h-298.666667V597.333333z m77.994667-461.994666a40.96 40.96 0 0 0-21.333334-11.093334l-159.573333-159.573333a42.666667 42.666667 0 0 0-60.373333 60.330667L387.669333 128H64a42.666667 42.666667 0 0 0 0 85.333333h323.669333l-103.04 102.997334a42.666667 42.666667 0 0 0 60.373334 60.373333l159.914666-159.957333a41.216 41.216 0 0 0 21.077334-10.709334 59.989333 59.989333 0 0 0 0-70.698666z"  horiz-adv-x="1024" />

    


  </font>
</defs>
</svg>
